<?xml version="1.0" standalone="no"?>
<!DOCTYPE svg PUBLIC "-//W3C//DTD SVG 20010904//EN"
 "http://www.w3.org/TR/2001/REC-SVG-20010904/DTD/svg10.dtd">
<svg version="1.0" xmlns="http://www.w3.org/2000/svg"
 width="652.000000pt" height="652.000000pt" viewBox="0 0 652.000000 652.000000"
 preserveAspectRatio="xMidYMid meet">
<metadata>
Created by potrace 1.14, written by Peter Selinger 2001-2017
</metadata>
<g transform="translate(0.000000,652.000000) scale(0.100000,-0.100000)"
fill="#000000" stroke="none">
<path d="M3125 6243 c-154 -40 -250 -101 -347 -221 -58 -72 -96 -198 -92 -308
8 -228 150 -420 365 -495 49 -17 87 -22 164 -23 117 0 127 3 220 48 144 71
264 230 292 386 11 63 7 204 -8 225 -3 6 -9 24 -13 40 -11 44 -61 128 -106
177 -22 24 -40 46 -40 51 0 4 -6 7 -13 7 -8 0 -22 9 -31 19 -21 23 -113 69
-165 83 -41 12 -196 19 -226 11z"/>
<path d="M3177 4744 c-1 -1 -47 -5 -102 -9 -55 -3 -120 -8 -145 -11 -25 -3
-52 -6 -60 -6 -8 0 -44 -4 -80 -9 -36 -4 -83 -10 -105 -13 -22 -3 -58 -8 -80
-11 -52 -8 -251 -52 -292 -64 -18 -5 -33 -7 -33 -4 0 3 -7 0 -15 -7 -8 -7 -15
-10 -15 -7 0 3 -31 -5 -70 -18 -38 -13 -70 -21 -70 -18 0 3 -6 1 -12 -4 -7 -6
-38 -18 -68 -28 -119 -38 -501 -211 -520 -236 -3 -3 -21 -14 -40 -24 -29 -15
-182 -113 -215 -138 -242 -181 -290 -222 -460 -392 -148 -148 -205 -211 -205
-224 0 -6 -4 -11 -8 -11 -11 0 -156 -193 -225 -300 -66 -101 -168 -296 -159
-304 3 -3 0 -6 -6 -6 -7 0 -12 -9 -12 -20 0 -11 -4 -20 -10 -20 -5 0 -9 -3 -8
-7 3 -7 -11 -48 -33 -98 -14 -34 -57 -186 -78 -275 -38 -168 -46 -252 -46
-500 0 -113 4 -227 8 -255 3 -27 9 -66 11 -86 7 -48 39 -162 66 -229 32 -82
117 -203 216 -310 173 -186 810 -813 838 -825 30 -13 76 -3 76 17 0 4 5 8 10
8 12 0 59 50 60 63 0 4 11 18 25 31 14 13 25 28 25 34 0 6 3 12 8 14 4 1 32
34 62 73 30 38 60 77 67 85 7 8 64 80 127 160 64 80 119 150 124 155 4 6 68
87 142 180 74 94 140 177 147 185 10 13 63 79 96 120 17 20 268 339 522 660
115 146 212 267 215 270 18 15 59 79 68 107 12 36 3 48 -38 57 -14 3 -35 7
-48 10 -12 3 -46 -2 -75 -11 -28 -8 -56 -16 -62 -18 -5 -1 -19 -6 -30 -10 -11
-4 -60 -24 -110 -43 -212 -82 -381 -194 -529 -351 -107 -112 -120 -123 -163
-142 -99 -42 -177 -7 -232 105 -17 35 -30 71 -37 99 -1 4 -2 8 -4 10 -1 1 -3
9 -5 17 -2 8 -16 58 -30 110 -15 52 -29 102 -30 110 -2 8 -15 65 -29 127 -15
62 -28 131 -31 154 -3 23 -7 45 -9 48 -15 24 -25 255 -15 316 4 22 9 54 12 70
19 123 125 312 206 366 20 13 38 27 41 30 13 17 111 41 170 42 131 2 255 -34
430 -127 114 -60 315 -190 356 -230 6 -6 26 -22 44 -36 74 -55 169 -147 257
-247 32 -36 66 -74 76 -85 9 -10 17 -22 17 -26 0 -4 18 -27 40 -49 81 -85 97
-77 280 147 120 146 185 225 195 236 5 6 24 28 40 49 17 21 35 43 40 49 6 6
28 34 50 61 59 73 69 86 80 99 6 6 30 36 55 66 25 30 47 57 50 60 3 3 23 28
45 55 21 28 42 52 45 55 3 3 21 25 41 50 20 25 46 56 58 70 11 14 24 30 29 35
16 22 205 251 223 273 10 12 17 22 14 22 -3 0 2 12 12 26 29 45 27 154 -4 233
-14 36 -30 68 -35 69 -4 2 -8 10 -8 17 0 17 -120 134 -167 162 -129 76 -266
129 -383 147 -19 3 -46 8 -60 11 -52 11 -504 27 -513 19z"/>
<path d="M5314 3987 c-10 -6 -21 -13 -24 -16 -3 -3 -39 -35 -80 -71 -161 -141
-274 -248 -288 -275 -8 -17 -4 -34 20 -85 17 -36 36 -72 43 -80 14 -17 83
-179 88 -207 2 -10 6 -25 10 -33 47 -128 57 -429 20 -595 -2 -11 -6 -29 -8
-40 -7 -41 -15 -71 -37 -140 -12 -38 -23 -72 -23 -75 -1 -3 -7 -18 -14 -35 -6
-16 -19 -50 -28 -75 -9 -25 -20 -49 -25 -54 -4 -6 -8 -18 -8 -28 0 -10 -3 -18
-8 -18 -4 0 -13 -14 -21 -32 -33 -74 -119 -137 -176 -129 -51 8 -116 38 -185
85 -41 28 -77 53 -80 57 -3 3 -30 23 -60 44 -30 21 -59 42 -65 47 -55 46 -338
229 -405 262 -57 28 -150 31 -204 8 -44 -20 -136 -105 -186 -172 -22 -29 -127
-155 -155 -186 -5 -6 -21 -26 -35 -44 -14 -18 -37 -47 -51 -64 -38 -45 -226
-276 -252 -309 -12 -16 -32 -40 -44 -53 -12 -13 -34 -40 -50 -61 -27 -36 -57
-74 -78 -97 -48 -53 -96 -118 -105 -140 -14 -38 -7 -62 70 -221 37 -77 96
-201 131 -274 116 -244 144 -295 172 -311 24 -13 28 -13 52 10 14 13 55 71 92
129 154 243 282 420 345 476 79 70 217 147 288 161 244 45 440 2 610 -134 25
-20 53 -45 63 -57 10 -11 33 -36 50 -55 33 -36 117 -154 117 -164 0 -3 13 -24
29 -48 42 -63 291 -505 291 -518 0 -5 5 -10 10 -10 6 0 10 -6 10 -14 0 -8 16
-31 35 -52 31 -33 39 -36 72 -31 43 7 114 55 193 128 30 28 106 99 169 158
140 130 188 175 367 349 78 75 172 167 210 203 67 64 144 147 144 155 0 2 18
30 40 61 22 32 40 64 40 71 0 6 5 12 10 12 6 0 10 8 10 18 0 10 4 22 10 28 11
11 61 144 54 144 -3 0 0 8 5 18 19 35 26 118 26 297 -1 166 -8 313 -19 375 -3
14 -8 45 -11 70 -3 25 -8 54 -10 65 -3 20 -5 28 -24 110 -5 22 -17 65 -26 95
-9 30 -18 62 -20 70 -25 97 -161 401 -188 421 -5 3 -9 10 -9 15 -2 22 -181
284 -232 341 -6 6 -33 37 -61 69 -122 141 -408 408 -475 444 -32 17 -100 21
-126 7z"/>
</g>
</svg>
