<svg width="41" height="26" viewBox="0 0 41 26" fill="none" xmlns="http://www.w3.org/2000/svg">
<path d="M1.35033 0.664313C2.56493 1.91686 2.39412 1.89789 10.9722 1.87891C15.2233 1.87891 18.8671 1.803 19.0569 1.72708C19.2466 1.67015 19.5693 1.23365 19.759 0.797159L20.1196 8.09431e-05H10.4218H0.705078L1.35033 0.664313Z" fill="#19191B"/>
<path d="M20.2526 0.607367C20.1767 0.948971 20.0818 6.35772 20.0248 12.6205C19.9679 18.8832 19.911 24.0263 19.873 24.0453C19.854 24.0832 16.6278 24.1022 12.7183 24.1212C8.8088 24.1212 5.03217 24.1971 4.32998 24.273C3.15334 24.4058 2.98254 24.4818 2.24239 25.2029L1.44531 26H20.4803C30.9372 26 39.4963 25.9431 39.4773 25.8482C39.4773 25.7723 39.0978 25.3927 38.6423 24.9942L37.8262 24.273L30.0073 24.254H22.2073L22.2642 19.5475C22.3022 16.9475 22.3781 14.765 22.473 14.6891C22.5489 14.6132 22.7766 14.727 22.9854 14.9548C23.2131 15.1825 23.4978 15.3154 23.6686 15.2394C24.162 15.0497 25.2628 13.4555 25.2628 12.9051C25.2628 12.3738 23.7255 10.0584 23.3839 10.0584C23.1183 10.0584 22.8526 10.4949 22.7007 11.1402C22.3971 12.6395 22.2263 11.4438 22.1883 7.0599C22.1504 4.47889 22.1693 2.25846 22.2073 2.12561C22.2453 1.95481 23.8394 1.89787 29.2861 1.89787C37.0292 1.89787 36.8584 1.91685 38.3007 0.664301L39.0219 0.0190468L29.7036 6.86646e-05H20.3664L20.2526 0.607367Z" fill="#19191B"/>
<path d="M1.38833 2.63786L0.00292969 2.75173L0.534315 3.24515C0.818986 3.52983 1.25548 3.85245 1.48322 3.96632C1.95767 4.21304 12.6613 4.61157 16.0394 4.51668L18.108 4.45975L18.6584 3.45391L19.2277 2.46705L10.9912 2.50501C6.47445 2.52399 2.14745 2.58092 1.38833 2.63786Z" fill="#19191B"/>
<path d="M22.7012 2.97955C23.0238 4.32699 23.1757 4.45984 24.5041 4.51677C25.1873 4.53575 28.6034 4.49779 32.1143 4.42188L38.4909 4.27006L39.3639 3.54889C39.8574 3.15035 40.2559 2.75181 40.2559 2.65692C40.2559 2.58101 36.2705 2.48612 31.4121 2.48612L22.5684 2.44816L22.7012 2.97955Z" fill="#19191B"/>
<path d="M7.59497 5.44678C6.28548 5.65553 5.79205 7.34458 6.41833 9.39421C6.93074 11.0073 7.19643 10.9694 8.31614 9.12852L9.22708 7.5913H10.9731C11.9409 7.5913 12.738 7.64823 12.738 7.70516C12.738 7.7621 12.3585 8.33144 11.903 8.97669C11.4475 9.62195 10.8592 10.5708 10.5745 11.0643C10.3088 11.5577 9.94825 12.184 9.77745 12.4307C9.49277 12.8862 9.49277 12.9621 10.138 14.3095C10.5176 15.0876 11.1439 16.2263 11.5424 16.8336C11.9599 17.4409 12.3585 18.0482 12.4344 18.1621C12.5293 18.3519 12.1687 18.4088 10.8592 18.4088H9.17015L8.46796 17.1752C7.59497 15.5811 7.27234 15.5621 6.58913 17.0613C6.32344 17.6686 6.0957 18.3519 6.0957 18.5796C6.0957 19.3387 6.60811 20.2307 7.15847 20.4584C7.80373 20.7051 17.4825 20.8759 17.4825 20.6292C17.4825 20.3445 16.9322 19.4146 14.8636 16.2263L12.795 13.019L14.1804 10.8935C14.9585 9.69786 16.0402 8.08472 16.5906 7.26867C17.1409 6.45261 17.6723 5.67451 17.7482 5.54167C17.8621 5.37086 16.8563 5.31393 12.9847 5.33291C10.2899 5.35188 7.86066 5.40882 7.59497 5.44678Z" fill="#19191B"/>
<path d="M23.7261 5.92126C25.9086 9.28037 27.9393 12.7913 27.8823 13.057C27.8254 13.2278 26.7437 14.9358 25.4911 16.8526C24.2196 18.7694 23.1758 20.4395 23.1758 20.5533C23.1758 20.7241 24.2955 20.7621 27.6736 20.7431C30.1597 20.7052 32.475 20.6482 32.8166 20.5913C34.0882 20.3636 34.5816 18.4468 33.8035 16.7387C33.2911 15.6001 32.8925 15.676 32.0385 17.1563L31.3174 18.3898L29.7042 18.4468C28.8312 18.4847 28.1101 18.4278 28.1101 18.3519C28.1101 18.276 28.4327 17.7636 28.8502 17.2132C29.2488 16.6628 29.9509 15.5621 30.3874 14.7461C31.0896 13.4555 31.1655 13.1899 30.9758 12.7913C30.6911 12.1461 30.7101 11.9563 31.1086 11.9563C31.3933 11.9373 31.3933 11.9183 31.1276 11.7096C30.9568 11.5767 30.7101 11.2541 30.5582 10.9694C29.894 9.71687 29.078 8.40738 28.7933 8.17965C28.2239 7.7052 28.4896 7.59133 30.0648 7.59133H31.621L32.456 9.10957C33.2341 10.5139 33.6327 10.8745 33.8794 10.457C33.9553 10.3621 34.1261 9.64096 34.2779 8.88183C34.5247 7.7052 34.5436 7.34461 34.3349 6.71834C33.8984 5.40885 33.4998 5.31396 28.0531 5.31396H23.3276L23.7261 5.92126Z" fill="#19191B"/>
<path d="M17.0838 10.9314C16.8181 11.0642 16.2677 11.6715 15.8882 12.2599L15.167 13.3416L15.5655 13.835C15.7933 14.1007 16.2867 14.765 16.6663 15.3153C17.0648 15.8657 17.4823 16.3022 17.5772 16.3212C17.6911 16.3212 18.1465 15.638 18.583 14.7839L19.3801 13.2657L18.7159 11.9372C18.3363 11.2161 17.9378 10.6278 17.8049 10.6467C17.6911 10.6657 17.3495 10.7796 17.0838 10.9314Z" fill="#19191B"/>
<path d="M16.4385 21.3695C16.1348 21.4074 12.7947 21.4644 9.03704 21.4833C2.83122 21.5403 2.14801 21.5782 1.54071 21.9008C0.534877 22.4322 -0.224245 23.1914 0.0604259 23.3811C0.193272 23.457 4.46333 23.533 9.56843 23.533C18.2414 23.533 18.8107 23.514 18.8107 23.1914C18.8107 22.66 18.0896 21.6352 17.5582 21.4454C17.2925 21.3315 17.0648 21.2746 17.0458 21.2935C17.0268 21.2935 16.7611 21.3505 16.4385 21.3695Z" fill="#19191B"/>
<path d="M22.7959 22.4702V23.533H31.7156C36.6309 23.533 40.6353 23.457 40.6353 23.3811C40.6353 23.2862 40.4075 23.0016 40.1229 22.7359C38.8893 21.5972 39.2878 21.6541 30.7097 21.5213L22.7959 21.4074V22.4702Z" fill="#19191B"/>
</svg>
