<svg width="135" height="22" viewBox="0 0 135 22" fill="none" xmlns="http://www.w3.org/2000/svg">
<path d="M0.928174 7.38099H2.39331V5.21399H4.95449V7.38099H7.20252V9.45999H4.95449V12.573C4.95449 13.728 5.3012 14.212 5.81567 14.212H7.20252V16.39H5.56962C3.3887 16.39 2.38212 15.092 2.38212 13.112V9.45999H0.916992V7.38099H0.928174Z" fill="black"/>
<path d="M16.81 7.117C19.5166 7.117 21.3508 9.064 21.3508 11.605V12.342H14.808C14.8304 13.618 15.6469 14.597 16.9107 14.597C17.7719 14.597 18.1186 14.344 18.3534 14.036C18.5324 13.805 18.6107 13.519 18.6107 13.42H21.2613C21.2613 13.849 21.06 14.531 20.6015 15.092C19.9081 15.961 18.7896 16.654 16.8995 16.654C14.1929 16.654 12.0791 14.784 12.0791 11.825C12.1015 8.877 14.1034 7.117 16.81 7.117ZM18.7449 10.802C18.7225 9.812 18.0627 8.998 16.7988 8.998C15.535 8.998 14.8192 9.812 14.808 10.802H18.7449Z" fill="black"/>
<path d="M30.1748 4.19098H32.736V16.39H30.1748V4.19098Z" fill="black"/>
<path d="M53.4272 7.117C56.1338 7.117 57.968 9.064 57.968 11.605V12.342H51.4252C51.4476 13.618 52.264 14.597 53.5279 14.597C54.389 14.597 54.7358 14.344 54.9706 14.036C55.1496 13.805 55.2279 13.519 55.2279 13.42H57.8785C57.8785 13.849 57.6772 14.531 57.2187 15.092C56.5252 15.961 55.4068 16.654 53.5167 16.654C50.8101 16.654 48.6963 14.784 48.6963 11.825C48.7298 8.877 50.7206 7.117 53.4272 7.117ZM55.3733 10.802C55.3509 9.812 54.691 8.998 53.4272 8.998C52.1634 8.998 51.4476 9.812 51.4364 10.802H55.3733Z" fill="black"/>
<path d="M70.6842 7.117C71.8697 7.117 72.7533 7.799 73.3237 8.723L73.8382 7.392H75.6724V14.718C75.6724 17.919 74.2296 19.855 70.8967 19.855C67.9105 19.855 67.0494 18.612 67.0494 17.193H69.7C69.7 17.556 70.125 17.787 70.8855 17.787C72.2388 17.787 73.0888 17.248 73.1 14.674C72.5296 15.433 71.7244 15.95 70.6842 15.95C67.9888 15.95 66.4678 13.915 66.4678 11.539C66.4678 9.16301 68 7.117 70.6842 7.117ZM71.2546 13.871C72.2053 13.871 73.0441 13.024 73.1 11.638V11.528C73.1 10.087 72.2388 9.185 71.2546 9.185C70.2704 9.185 69.152 9.9 69.152 11.528C69.152 13.156 70.2704 13.871 71.2546 13.871Z" fill="black"/>
<path d="M87.9863 7.38098H89.8205L90.458 9.04198C90.8271 8.12898 91.5429 7.38098 92.9298 7.38098H93.2988V9.63598H92.9298C91.3528 9.63598 90.5811 10.549 90.5475 11.814V16.39H87.9863V7.38098Z" fill="black"/>
<path d="M108.957 7.117C110.254 7.117 111.171 7.766 111.775 8.723L112.29 7.392H114.213V16.39H112.29L111.719 15.07C111.138 16.005 110.22 16.654 108.957 16.654C106.463 16.654 104.74 14.597 104.74 11.825C104.751 9.064 106.474 7.117 108.957 7.117ZM109.527 14.586C110.646 14.586 111.507 13.684 111.563 11.979V11.704C111.507 9.98801 110.646 9.185 109.527 9.185C108.375 9.185 107.424 10.032 107.424 11.836C107.424 13.629 108.375 14.586 109.527 14.586Z" fill="black"/>
<path d="M122.77 7.38098H124.235V7.29298C124.235 5.31298 125.409 4.19098 127.601 4.19098H129.044V6.26998H127.467C126.74 6.26998 126.483 6.57798 126.427 7.39198H129.044V9.45998H126.796V16.39H124.235V9.45998H122.77V7.38098Z" fill="black"/>
<path d="M103.454 11.759C103.454 11.066 104.024 10.494 104.74 10.494C105.445 10.494 106.026 11.055 106.026 11.759C106.026 12.452 105.456 13.024 104.74 13.024C104.024 13.024 103.454 12.452 103.454 11.759Z" fill="#F4492C"/>
<path d="M86.6104 11.759C86.6104 11.066 87.1807 10.494 87.8965 10.494C88.6011 10.494 89.1827 11.055 89.1827 11.759C89.1827 12.452 88.6123 13.024 87.8965 13.024C87.1807 13.024 86.6104 12.452 86.6104 11.759Z" fill="#F4492C"/>
<path d="M97.1572 11.759C97.1572 11.066 97.7276 10.494 98.4434 10.494C99.148 10.494 99.7296 11.055 99.7296 11.759C99.7296 12.452 99.1592 13.024 98.4434 13.024C97.7276 13.024 97.1572 12.452 97.1572 11.759Z" fill="#F4492C"/>
<path d="M7.15825 10.78H0.55957V12.98H7.15825V10.78Z" fill="#F4492C"/>
<path d="M36.461 10.78H29.8623V12.98H36.461V10.78Z" fill="#F4492C"/>
<path d="M78.4018 10.78H72.3623V12.98H78.4018V10.78Z" fill="#F4492C"/>
<path d="M95.8484 10.78H90.3682V12.98H95.8484V10.78Z" fill="#F4492C"/>
<path d="M120.387 11.759C120.387 11.066 120.957 10.494 121.673 10.494C122.378 10.494 122.959 11.055 122.959 11.759C122.959 12.452 122.389 13.024 121.673 13.024C120.968 13.024 120.387 12.452 120.387 11.759Z" fill="#F4492C"/>
<path d="M124.402 11.759C124.402 11.066 124.973 10.494 125.689 10.494C126.393 10.494 126.975 11.055 126.975 11.759C126.975 12.452 126.404 13.024 125.689 13.024C124.973 13.024 124.402 12.452 124.402 11.759Z" fill="#F4492C"/>
<path d="M113.967 10.78H107.368V12.98H113.967V10.78Z" fill="#F4492C"/>
<path d="M134.882 10.78H128.283V12.98H134.882V10.78Z" fill="#F4492C"/>
<path d="M70.6843 10.78H63.5264V12.98H70.6843V10.78Z" fill="#F4492C"/>
<path d="M11.9111 11.759C11.9111 11.066 12.4815 10.494 13.1973 10.494C13.9019 10.494 14.4835 11.055 14.4835 11.759C14.4835 12.452 13.9131 13.024 13.1973 13.024C12.4927 13.024 11.9111 12.452 11.9111 11.759Z" fill="#F4492C"/>
<path d="M48.0254 11.759C48.0254 11.066 48.5958 10.494 49.3116 10.494C50.0162 10.494 50.5978 11.055 50.5978 11.759C50.5978 12.452 50.0274 13.024 49.3116 13.024C48.5958 13.024 48.0254 12.452 48.0254 11.759Z" fill="#F4492C"/>
<path d="M26.1709 11.759C26.1709 11.066 26.7413 10.494 27.4571 10.494C28.1617 10.494 28.7433 11.055 28.7433 11.759C28.7433 12.452 28.1729 13.024 27.4571 13.024C26.7413 13.024 26.1709 12.452 26.1709 11.759Z" fill="#F4492C"/>
<path d="M37.8135 11.759C37.8135 11.066 38.3839 10.494 39.0997 10.494C39.8043 10.494 40.3858 11.055 40.3858 11.759C40.3858 12.452 39.8155 13.024 39.0997 13.024C38.3951 13.024 37.8135 12.452 37.8135 11.759Z" fill="#F4492C"/>
<path d="M41.6162 11.759C41.6162 11.066 42.1866 10.494 42.9024 10.494C43.607 10.494 44.1886 11.055 44.1886 11.759C44.1886 12.452 43.6182 13.024 42.9024 13.024C42.1866 13.024 41.6162 12.452 41.6162 11.759Z" fill="#F4492C"/>
<path d="M79.6543 11.858C79.6543 11.165 80.2247 10.593 80.9405 10.593C81.6451 10.593 82.2267 11.154 82.2267 11.858C82.2267 12.551 81.6563 13.123 80.9405 13.123C80.2359 13.123 79.6543 12.562 79.6543 11.858Z" fill="#F4492C"/>
</svg>
