<svg width="34" height="33" viewBox="0 0 34 33" fill="none" xmlns="http://www.w3.org/2000/svg">
<rect opacity="0.8" x="7.80273" y="23.6125" width="3.1803" height="3.1803" transform="rotate(-45 7.80273 23.6125)" fill="#19191B"/>
<rect x="11.3633" y="20.0518" width="3.1803" height="3.1803" transform="rotate(-45 11.3633 20.0518)" fill="#19191B"/>
<rect opacity="0.1" x="14.9238" y="16.4913" width="3.1803" height="3.1803" transform="rotate(-45 14.9238 16.4913)" fill="#19191B"/>
<rect x="18.4844" y="12.9306" width="3.1803" height="3.1803" transform="rotate(-45 18.4844 12.9306)" fill="#19191B"/>
<rect x="7.80273" y="9.37006" width="3.1803" height="3.1803" transform="rotate(-45 7.80273 9.37006)" fill="#19191B"/>
<rect opacity="0.6" x="14.9238" y="9.37" width="3.1803" height="3.1803" transform="rotate(-45 14.9238 9.37)" fill="#19191B"/>
<rect opacity="0.6" x="22.0449" y="9.37" width="3.1803" height="3.1803" transform="rotate(-45 22.0449 9.37)" fill="#19191B"/>
<rect opacity="0.3" x="22.0449" y="16.4912" width="3.1803" height="3.1803" transform="rotate(-45 22.0449 16.4912)" fill="#19191B"/>
<rect opacity="0.6" x="22.0449" y="23.6125" width="3.1803" height="3.1803" transform="rotate(-45 22.0449 23.6125)" fill="#19191B"/>
</svg>
