<svg width="51" height="47" viewBox="0 0 51 47" fill="none" xmlns="http://www.w3.org/2000/svg">
<path d="M28.4688 0.484396C28.4688 0.567423 29.05 1.25931 29.7419 2.03422C32.371 4.96782 33.7271 8.31656 33.7271 11.8867C33.7271 14.1561 32.8969 18.003 32.0666 19.6635L31.5684 20.6045L30.1847 18.4735C28.6348 16.121 28.0536 14.5435 27.7492 12.1081C27.6385 11.1395 27.4448 10.5306 27.2234 10.5306C27.0297 10.5306 26.6145 11.2502 26.3101 12.1081C24.2621 17.8369 24.4005 22.2373 26.7806 25.3647C30.4061 30.1802 37.7677 30.706 41.0888 26.361C42.611 24.3683 43.2198 22.4034 43.2198 19.5251C43.2198 11.4992 37.8784 4.19291 29.5204 0.733477C28.9393 0.512072 28.4688 0.401371 28.4688 0.484396Z" fill="#19191B"/>
<path d="M14.9083 1.75747C11.6426 3.00286 9.2902 4.49734 7.02081 6.79441C-0.368544 14.1561 -1.66929 23.3167 3.56137 30.9828C4.69607 32.6987 8.68134 36.8223 9.15182 36.8223C9.2902 36.8223 9.0688 36.2688 8.68134 35.6046C6.32892 31.5916 5.55401 26.8591 6.578 22.6525C7.35292 19.4144 8.34923 17.4771 11.7256 12.883C16.8733 5.79809 17.6759 4.38664 17.6759 2.22795C17.6759 1.48071 17.5928 0.844175 17.4821 0.844175C17.3438 0.871851 16.2091 1.25931 14.9083 1.75747Z" fill="#19191B"/>
<path d="M24.2905 7.09884C23.7924 7.65235 21.9104 9.25753 20.1669 10.669C12.0856 17.1727 9.12436 21.9329 9.09668 28.4366C9.09668 31.9791 10.5635 35.743 13.1373 38.7042C17.3717 43.6582 27.1411 47.4774 34.1707 46.9515C42.1135 46.3704 47.8147 42.6065 50.2501 36.3795C50.8867 34.719 50.9697 34.0548 50.9974 31.1488C51.025 27.634 50.8313 26.3056 50.2501 26.3056C50.0841 26.3056 49.3092 27.0529 48.5896 27.9938C46.0711 31.1212 41.6984 33.7503 37.9069 34.3592C31.9013 35.3555 25.2868 31.6747 22.6577 25.8905C21.7721 23.9532 21.4123 21.9606 21.4953 19.1653C21.5783 16.7299 21.9381 15.5399 23.9307 11.3332C25.3975 8.20586 26.0341 6.10252 25.5082 6.10252C25.3699 6.10252 24.8164 6.54533 24.2905 7.09884Z" fill="#19191B"/>
</svg>
