<svg width="139" height="21" viewBox="0 0 139 21" fill="none" xmlns="http://www.w3.org/2000/svg">
<g clip-path="url(#clip0_602_2)">
<path d="M18.5333 2.77356H0V21H18.5333V2.77356Z" fill="#1DCA6C"/>
<path d="M120.033 2.77356V21H124.109V13.8872H134.526V21H138.603V2.77356H120.033ZM134.526 9.88629H124.109V6.7745H134.526V9.88629Z" fill="black"/>
<path d="M31.4728 6.7745V9.88629H45.7397V21H27.3965V16.999H41.89V13.8872H27.3965V2.77356H45.7397V6.7745H31.4728Z" fill="black"/>
<path d="M68.7421 2.77356V13.8872H54.2484V21H50.1719V9.88629H64.6655V6.7745H50.1719V2.77356H68.7421Z" fill="black"/>
<path d="M91.5171 9.88629H73.1738V13.8872H91.5171V9.88629Z" fill="black"/>
<path d="M91.5171 16.999H73.1738V20.9999H91.5171V16.999Z" fill="black"/>
<path d="M91.5171 2.77356H73.1738V6.7745H91.5171V2.77356Z" fill="black"/>
<path d="M103.096 16.999H115.324V21H96.7549V2.77356H100.831V13.4427L110.795 2.77356H116.004L103.096 16.999Z" fill="black"/>
<path d="M1.94632 15.8258L5.96624 19.4151L5.46374 15.1731L9.31619 10.9312L13.5037 15.1731L12.6661 19.4151L16.5186 15.8258V10.6049L10.4887 0L5.46374 7.17867V4.24196L1.61133 10.6049L1.94632 15.8258Z" fill="black"/>
</g>
<defs>
<clipPath id="clip0_602_2">
<rect width="139" height="21" fill="white"/>
</clipPath>
</defs>
</svg>
