<svg width="49" height="29" viewBox="0 0 49 29" fill="none" xmlns="http://www.w3.org/2000/svg">
<path d="M11.0251 11.7392V15.4009H9.40652V13.2782H2.29551V15.4009H0.650425V11.7392H1.71177C1.92404 10.9167 2.03017 9.61656 2.03017 7.67961V3.19543H9.85759V11.7392H11.0251ZM3.35685 11.7392H8.18597V4.73438H3.67526V7.67961C3.67526 9.19202 3.54259 10.6779 3.35685 11.7392ZM12.8294 4.2037V2.61169H14.5806V4.2037H12.8294ZM12.909 13.2782V5.31812H14.501V13.2782H12.909ZM24.0265 11.8454H25.0879V15.1356H23.5755V13.2782H17.8442V15.1356H16.3318V11.8454H17.2605C17.4197 11.2086 17.4993 10.1738 17.4993 8.63482V5.31812H24.0265V11.8454ZM18.7994 11.8719H22.4611V6.7244H19.0382V8.71442C19.0382 9.98803 18.9586 11.0759 18.7994 11.8719ZM37.2403 11.8719H37.5587V13.2782H36.8157C35.8605 13.2782 35.3033 12.7741 35.3033 11.7923V9.9615H32.6765V13.2782H31.0845V9.9615H28.4842V11.7923C28.4842 12.7741 27.9004 13.2782 26.9718 13.2782H26.2288V11.8719H26.5207C26.7595 11.8719 26.9187 11.7127 26.9187 11.4739V8.58175H28.3515L26.3084 5.31812H28.0066L29.917 8.50215H31.0845V2.66475H32.6765V8.50215H33.844L35.7809 5.31812H37.4791L35.436 8.58175H36.8423V11.4739C36.8423 11.7127 37.0015 11.8719 37.2403 11.8719ZM44.8819 5.31812H46.527V13.2782H44.9616V7.49387L41.0611 13.2782H39.4426V5.31812H41.008V11.0494L44.8819 5.31812Z" fill="black"/>
<path d="M7.21688 18.59V19.8925H4.61177V25.8264H3.16448V19.8925H0.55936V18.59H7.21688ZM14.2845 24.5721H14.5498V25.8264C14.4774 25.8505 14.2845 25.8747 14.0433 25.8747C13.1508 25.8747 12.7407 25.5611 12.6442 24.741C12.1377 25.4646 11.1728 25.947 10.1115 25.947C8.71241 25.947 7.74756 25.0787 7.74756 23.8002C7.74756 22.0393 9.43606 21.6534 10.8592 21.4363C11.9447 21.2916 12.4754 21.1951 12.4754 20.6403C12.4754 20.0614 11.8723 19.6754 10.9557 19.6754C10.1356 19.6754 9.36369 20.0373 8.78478 20.6403L7.89228 19.6996C8.73654 18.9036 9.77376 18.4694 11.0281 18.4694C12.7648 18.4694 13.8262 19.3619 13.8262 20.8574V24.1138C13.8262 24.4274 13.9709 24.5721 14.2845 24.5721ZM10.3527 24.7651C11.4623 24.7651 12.4271 23.9932 12.4271 23.0766V22.1358C12.1618 22.3047 11.7276 22.377 11.0281 22.4977C10.1115 22.6424 9.17072 22.7871 9.17072 23.7278C9.17072 24.4032 9.60491 24.7651 10.3527 24.7651ZM22.4134 18.59V25.8264H20.9661V19.8925H17.9751V22.4977C17.9751 25.1028 17.4203 25.8747 16.0212 25.8747C15.7559 25.8747 15.5147 25.8505 15.3458 25.8264V24.4997H15.7318C16.3589 24.4997 16.5519 24.355 16.5519 22.3288V18.59H22.4134ZM28.1061 21.3157C29.7222 21.3157 30.7353 22.1841 30.7353 23.559C30.7353 24.958 29.6981 25.8264 28.1061 25.8264H24.6808V18.59H26.1281V21.3157H28.1061ZM27.9613 24.6203C28.7815 24.6203 29.2639 24.2344 29.2639 23.559C29.2639 22.8836 28.7815 22.4977 27.9613 22.4977H26.1281V24.6203H27.9613ZM37.2722 18.59H38.7195V25.8264H37.2722V22.8112H33.7505V25.8264H32.3032V18.59H33.7505V21.4604H37.2722V18.59ZM46.7278 18.59V25.8264H45.2805V23.1248H42.4583V24.4756C42.4583 25.3681 41.9518 25.8264 41.0593 25.8264H40.408V24.548H40.6733C40.8904 24.548 41.0352 24.4032 41.0352 24.1862V22.4735H42.193C41.3729 22.1841 40.7698 21.5328 40.7698 20.6885C40.7698 19.4342 41.7347 18.59 43.2543 18.59H46.7278ZM43.592 19.7478C42.7237 19.7478 42.2171 20.182 42.2171 20.8574C42.2171 21.5328 42.796 21.9911 43.7127 21.9911H45.2805V19.7478H43.592Z" fill="black"/>
</svg>
