<svg width="51" height="40" viewBox="0 0 51 40" fill="none" xmlns="http://www.w3.org/2000/svg">
<path d="M34.212 1.17757C34.212 2.77166 33.9309 3.8597 33.0363 5.85864L32.3973 7.30091L31.4772 5.80803C30.9661 4.99833 30.2249 3.60667 29.8159 2.72106C29.4326 1.86076 29.0492 1.15227 28.9981 1.15227C28.9214 1.15227 28.6402 1.91136 28.3591 2.84757C27.8479 4.44167 19.9503 20.5597 19.6436 20.6103C19.567 20.6356 19.1069 19.9271 18.6469 19.0415C18.1612 18.1812 17.3178 16.7136 16.7555 15.7521L15.7587 14.0568L15.0431 15.5497C14.1997 17.2956 10.8259 23.1912 7.96339 27.9229L5.91871 31.2629L5.15196 29.8206C4.74302 29.0109 3.87403 27.3156 3.23507 26.0758C2.57054 24.8106 1.88046 23.5708 1.65044 23.2924C1.29262 22.8117 1.26706 22.9382 1.26706 24.8106C1.26706 25.924 0.934798 29.77 0.55142 33.3378C0.168042 36.9308 -0.0619844 39.9166 0.0146912 39.9925C0.0913668 40.0684 2.49387 39.5623 5.35642 38.8538C9.54802 37.8164 26.3655 34.3246 28.768 33.9956C29.3303 33.9197 29.5604 34.1728 32.2696 37.9429C33.2663 39.3346 33.7008 39.537 33.7008 38.5755C33.7008 38.3225 34.1609 36.8802 34.6976 35.362C35.2599 33.8691 36.18 31.1364 36.7679 29.2893C37.688 26.3541 38.0202 25.6962 39.3748 23.8491C41.7262 20.7368 44.0265 18.5608 45.79 17.8523C46.8124 17.4221 47.2468 17.1185 47.2468 16.7896C47.2468 16.0558 46.3267 16.2329 43.5409 17.498C42.1351 18.1306 40.1671 18.9403 39.1959 19.2693L37.4068 19.8765L36.18 23.2418C35.081 26.2782 34.1098 29.4411 33.343 32.5787C33.1897 33.2112 32.9852 33.8185 32.9085 33.8944C32.8318 33.9703 32.0395 31.5918 31.1705 28.5808L29.6115 23.09L30.8127 21.7743C31.5028 21.0658 33.3686 18.8644 34.9788 16.8908C36.5889 14.9171 38.0713 13.2977 38.2502 13.2977C38.7614 13.2977 43.9498 14.487 44.7421 14.7906C45.4066 15.0436 45.5344 14.9424 47.4513 12.8423C49.9305 10.0842 51.1829 8.33834 50.9784 7.80697C50.7995 7.40213 50.3905 7.42743 47.298 8.0094C46.02 8.26243 44.9721 8.26243 42.1096 8.0094C40.116 7.83228 38.2502 7.60455 37.9435 7.47803C37.5346 7.32622 37.1512 6.54182 36.2822 3.98621C35.6688 2.16439 34.9532 0.469086 34.6976 0.24136C34.2376 -0.188793 34.212 -0.138187 34.212 1.17757Z" fill="#19191B"/>
</svg>
