<svg width="52" height="41" viewBox="0 0 52 41" fill="none" xmlns="http://www.w3.org/2000/svg">
<path d="M2.57074 1.54798C2.82542 3.05289 4.33033 5.83119 5.60372 7.08143C7.7569 9.25776 10.9288 10.2533 13.3135 9.51244C15.2583 8.93363 16.8558 8.28536 16.7401 8.14645C16.6706 8.07699 15.3741 8.00753 13.8692 7.98438C10.3731 7.93807 9.53965 7.56763 10.6047 6.50262C10.9519 6.15533 11.3687 6.03957 12.2253 6.03957C14.3554 6.03957 15.5825 6.45631 17.9209 8.03068C19.1479 8.84102 20.3287 9.51244 20.5602 9.51244C21.1622 9.51244 21.2317 9.74397 20.8844 10.6006C20.6065 11.272 20.4445 11.3646 19.7268 11.3646C18.9396 11.3646 18.9164 11.3415 19.0553 10.6932C19.1711 10.1607 19.0785 9.92919 18.5691 9.53559C17.8051 8.93363 17.3652 8.93363 15.513 9.48929C13.545 10.0913 12.1559 10.9479 10.3037 12.6612C7.36331 15.4395 5.18697 15.972 2.33922 14.606C0.811149 13.8883 0.394404 14.0735 1.41311 14.9996C3.6126 17.0139 9.49334 17.5232 12.781 15.972C14.2165 15.3006 16.1613 13.541 16.1613 12.9159C16.1844 12.4528 16.2076 12.4528 16.4159 12.8001C16.578 13.1011 16.5086 13.6336 16.0918 14.7681C15.7677 15.6479 15.2815 17.7547 15.0036 19.468C14.3554 23.4503 14.0081 24.33 12.1327 26.8305C10.651 28.8448 9.44704 31.0211 9.44704 31.7852C9.44704 32.1093 9.53965 32.1324 10.4426 31.8546C11.878 31.4379 13.846 30.396 14.5637 29.7246L15.1889 29.1458L15.6982 30.7433C16.5549 33.429 18.708 37.0639 19.4489 37.0639C19.611 37.0639 19.6573 36.5777 19.5415 35.5822C19.3795 33.9846 19.5647 32.2019 19.8888 32.2019C20.0046 32.2019 20.0972 32.4566 20.0972 32.7576C20.0972 33.9846 24.172 40.7915 24.9824 40.9536C25.3065 41.023 25.3991 40.6989 25.538 38.893C25.6306 37.7354 25.7927 36.5083 25.8853 36.161L26.0474 35.559L26.3484 36.2536C26.6725 37.0871 27.2745 39.7496 27.2745 40.4674C27.2745 41.6481 28.2469 40.8378 29.8676 38.3142C30.8631 36.7398 31.8355 34.7024 32.1597 33.4058C32.3217 32.7576 32.5301 32.2019 32.6227 32.2019C32.8774 32.2019 33.1089 34.7255 32.9468 35.9295C32.7616 37.2955 33.0163 37.3881 33.9887 36.3231C34.8685 35.3738 36.0956 33.0122 36.8828 30.7664L37.5079 29.0069L38.5961 29.8172C39.6148 30.6044 41.8142 31.7389 42.995 32.0861C43.5044 32.2482 43.5275 32.2019 43.3655 31.461C43.1108 30.3729 42.231 28.7059 40.7492 26.5295C39.0128 24.0059 38.735 23.265 38.1562 20.0005C37.9015 18.4493 37.4847 16.5045 37.2301 15.7173C36.9754 14.907 36.7902 13.7957 36.8133 13.2168C36.8365 12.5454 36.8596 12.4065 36.9291 12.8001C37.0448 13.6104 38.8044 15.1848 40.3788 15.9025C43.4812 17.338 48.5979 17.1528 51.0289 15.4858C51.793 14.9533 52.1634 14.4208 51.9319 14.1893C51.8624 14.1198 51.3299 14.305 50.7511 14.606C49.4546 15.2311 47.1393 15.4626 45.9354 15.069C45.4492 14.907 44.199 13.9809 42.9487 12.8233C40.6798 10.6932 38.4571 9.41983 36.6281 9.142C35.3547 8.95678 34.5907 9.39668 34.2202 10.5543C33.9887 11.2257 33.8498 11.3646 33.2941 11.3646C32.8311 11.3646 32.5995 11.2257 32.5069 10.9016C32.4375 10.6469 32.2986 10.2302 32.2291 9.97549C32.1365 9.5819 32.206 9.51244 32.8079 9.51244C33.2247 9.51244 33.8035 9.25776 34.2665 8.86417C36.7438 6.78045 38.434 6.03957 40.6335 6.03957C42.1152 6.03957 42.7867 6.34055 42.7867 6.98882C42.7867 7.66024 41.8606 7.91492 38.9202 8.05383C37.4847 8.12329 36.304 8.28536 36.304 8.37797C36.304 8.49373 36.5123 8.58634 36.767 8.58634C37.0217 8.58634 37.9941 8.84102 38.897 9.16516C40.8187 9.83658 41.7679 9.88288 43.5044 9.37353C46.7457 8.40112 48.8526 6.15533 50.2186 2.12679C50.4733 1.43222 50.6122 0.83025 50.5659 0.783947C50.5196 0.73764 49.9871 1.01547 49.3851 1.38591C47.3477 2.68245 46.3058 2.89082 43.1571 2.6593C41.6059 2.54354 38.735 2.45093 36.7438 2.45093H33.1321L31.4882 3.28442C29.8907 4.11791 29.8444 4.11791 29.4508 3.70116C28.5247 2.68245 25.6769 2.56669 24.1026 3.49279L23.2922 3.95584L21.7642 3.21496L20.213 2.45093H16.3928C14.2859 2.45093 11.2992 2.54354 9.74802 2.6593C6.46036 2.89082 5.39535 2.68245 3.58945 1.45537L2.43183 0.668182L2.57074 1.54798ZM28.9878 7.15089C30.0759 7.776 30.5158 8.58634 30.9789 10.9016C31.2336 12.1055 31.8818 14.2356 32.4143 15.6479L33.4099 18.1946V21.3202C33.4099 24.3532 33.3867 24.469 32.7385 25.6034C31.3956 27.8492 28.4784 30.2571 26.742 30.4886C25.3528 30.6738 24.1026 30.0719 22.1346 28.2891C19.9351 26.2749 19.4026 25.0941 19.4026 22.2695C19.4026 19.6301 19.7962 17.8242 21.0233 14.7218C21.5095 13.4484 22.0883 11.7351 22.2967 10.9016C22.8292 8.77156 23.2691 7.96122 24.1952 7.40556C25.7233 6.45631 27.5755 6.3637 28.9878 7.15089ZM18.1292 11.3646C18.6154 12.2907 18.5691 12.5686 17.9672 12.476C17.4347 12.4065 17.1568 11.6656 17.4115 10.9942C17.5967 10.5312 17.7356 10.5775 18.1292 11.3646ZM35.6094 12.0361C35.3547 12.5454 34.9148 12.6843 34.9148 12.2907C34.9148 12.1518 35.1 11.7582 35.3084 11.4341C35.6325 10.9479 35.7483 10.9016 35.7946 11.1794C35.8409 11.4109 35.7483 11.7814 35.6094 12.0361Z" fill="#19191B"/>
<path d="M28.4552 19.468C27.7838 19.5838 27.0661 19.8153 26.8809 20.0005C26.5567 20.3015 26.441 20.3015 25.7695 19.8848C24.7277 19.2828 22.5282 19.3523 22.5282 20.0005C22.5282 20.3015 22.8292 20.533 23.4311 20.7414C25.1676 21.3434 26.0937 22.9872 25.6306 24.6079C25.3759 25.4877 25.075 25.7192 24.0794 25.7192C23.0375 25.7192 22.4587 25.3951 21.44 24.2606C20.4676 23.1724 20.2361 23.5429 21.0927 24.7931C21.6021 25.5571 23.6395 26.9463 25.1213 27.5482C27.1355 28.3586 30.7705 26.7611 31.6966 24.6542C31.9744 24.0754 32.1133 23.5429 32.0439 23.4734C31.9744 23.3808 31.766 23.7049 31.5577 24.168C31.0715 25.3488 30.4232 25.7192 28.872 25.7192C27.3439 25.7192 27.2745 25.6266 27.2745 23.6818C27.2976 21.8759 28.1542 20.9729 29.9601 20.8109C30.6316 20.7646 30.8862 20.6256 30.9557 20.3015C31.0252 19.8385 30.4232 19.2133 29.9601 19.2596C29.8212 19.2828 29.1498 19.3754 28.4552 19.468Z" fill="#19191B"/>
</svg>
