<svg width="32" height="32" viewBox="0 0 32 32" fill="none" xmlns="http://www.w3.org/2000/svg">
<path d="M5.26759 0.307161C0.415619 1.81437 -1.58711 8.1529 1.65442 11.828C2.02606 12.2616 2.85193 13.0049 3.49197 13.5004C5.37082 14.9456 5.28823 16.2464 3.20292 17.6297C1.75765 18.5795 0.911139 19.5911 0.394973 20.9951C-1.02965 24.8148 1.55119 29.6667 5.70117 30.9468C7.12579 31.3804 8.26135 31.3185 9.76856 30.7403C10.8628 30.3274 12.37 29.0473 13.1959 27.8498C14.1869 26.4045 14.7857 25.9916 15.9213 25.9916C16.9123 25.9916 17.3872 26.3013 18.2543 27.5401C20.2984 30.41 22.6521 31.6075 25.2742 31.1326C27.6692 30.6784 29.6926 29.0886 30.8695 26.7142C31.5301 25.3722 31.6127 25.0212 31.6334 23.5347C31.6334 22.0894 31.5714 21.7384 30.9727 20.5409C30.4152 19.4053 30.0642 18.9924 28.619 17.8981C27.2563 16.8451 26.8846 16.4322 26.7401 15.8335C26.4924 14.8424 26.8434 14.285 28.4538 13.2113C30.4359 11.8486 31.2204 10.7337 31.5508 8.731C31.9431 6.21211 31.1998 4.12679 29.2177 2.12407C27.5247 0.431042 26.162 -0.105772 23.8289 0.0181084C21.2894 0.162636 19.4725 1.31885 17.9859 3.71386C17.4904 4.51908 16.4581 5.13848 15.6322 5.13848C14.8683 5.11784 14.3315 4.7049 13.3611 3.38351C12.1429 1.71114 10.9454 0.740742 9.66533 0.327808C8.36459 -0.105772 6.63027 -0.105772 5.26759 0.307161ZM18.626 8.81359C20.319 9.6601 21.8675 11.2912 22.5076 12.9429C23.1889 14.7185 23.127 16.9277 22.3217 18.6414C21.6197 20.128 20.4429 21.3461 18.915 22.1926C18.0272 22.6675 17.5317 22.7914 16.0451 22.8533C14.4554 22.9359 14.1457 22.8946 13.0927 22.3991C11.4616 21.6558 9.66533 19.777 9.06657 18.2078C8.38523 16.4322 8.38523 14.285 9.10787 12.7571C10.4293 9.90786 13.3817 7.92578 16.1071 8.09096C16.9123 8.13225 17.7175 8.35936 18.626 8.81359Z" fill="#19191B"/>
<path d="M13.836 11.5805C13.3405 11.8076 12.6798 12.3857 12.3494 12.8193C11.1726 14.4504 11.0693 15.8544 11.9984 17.6919C13.3198 20.376 17.0156 20.8096 19.0802 18.5384C19.9887 17.5268 20.2364 16.9074 20.2571 15.6686C20.2777 12.3651 16.7678 10.1146 13.836 11.5805Z" fill="#19191B"/>
</svg>
