<svg width="47" height="29" viewBox="0 0 47 29" fill="none" xmlns="http://www.w3.org/2000/svg">
<g clip-path="url(#clip0_501_111)">
<path fill-rule="evenodd" clip-rule="evenodd" d="M46.2557 14.3904C45.5494 11.8597 43.1911 9.55905 37.4571 9.55905C32.7223 9.55905 30.4328 10.4613 29.7439 11.0645C29.2894 11.4576 29.0962 11.7089 29.0962 12.4629V26.1058C29.0962 27.3734 30.1167 28.4013 31.3754 28.4013H34.0686C35.3279 28.4013 36.349 27.3734 36.349 26.1052V14.1778C36.349 13.1892 39.1832 12.807 39.1832 14.9124C39.1832 15.5227 39.1639 26.1064 39.1639 26.1064C39.1639 27.3747 40.1824 28.4026 41.4431 28.4026H44.1343C45.3936 28.4026 46.4148 27.376 46.4148 26.1084V16.2355C46.4148 15.2894 46.2989 14.5619 46.2493 14.3879L46.2557 14.3904ZM7.90759 9.35089C2.30171 9.35089 0.505411 11.0877 0.239507 11.551C-0.22663 12.3669 0.473863 13.9593 1.67526 14.0476C2.64745 14.1185 5.95033 12.278 9.74445 13.3696C11.0746 13.7524 10.8686 15.4112 10.8686 15.9371C10.8686 16.4636 10.5402 16.655 9.82557 16.655C9.11092 16.655 0 15.5543 0 22.5388C0 27.849 6.16151 28.6159 8.70466 28.6159C11.2478 28.6159 17.4093 28.7106 17.4093 25.935V15.4112C17.4093 12.4133 14.3704 9.35154 7.91016 9.35154L7.90759 9.35089ZM10.6993 23.9508C10.6993 24.6758 10.2531 25.3557 8.89008 25.3557C7.85737 25.3557 6.96501 24.4341 6.96501 22.388C6.96501 20.5552 7.83419 19.4203 8.89008 19.4203C10.1353 19.4203 10.6993 20.2001 10.6993 20.7221V23.9508Z" fill="#19191B"/>
<path d="M27.8027 0H18.0743C17.0422 0 16.9766 1.07622 16.9766 1.07622V8.46156C16.9766 9.91542 18.4477 9.88256 18.4477 9.88256V11.3757C18.4207 12.488 19.1984 12.5164 20.49 11.7708L23.8482 9.86H27.737C28.8122 9.86 28.9886 8.69613 28.9886 8.69613V1.31724C28.9886 0.110844 27.8027 0 27.8027 0ZM27.4511 8.323H24.5964C23.5424 8.323 22.8619 8.76251 22.8619 8.76251L19.756 10.6217V9.66796C19.756 8.24373 18.4477 8.25662 18.4477 8.25662V1.45H27.4511V8.323Z" fill="#EF4A5F"/>
<path style="mix-blend-mode:overlay" d="M27.8027 0H18.0743C17.0422 0 16.9766 1.07622 16.9766 1.07622V8.46156C16.9766 9.91542 18.4477 9.88256 18.4477 9.88256V11.3757C18.4207 12.488 19.1984 12.5164 20.49 11.7708L23.8482 9.86H27.737C28.8122 9.86 28.9886 8.69613 28.9886 8.69613V1.31724C28.9886 0.110844 27.8027 0 27.8027 0ZM27.4511 8.323H24.5964C23.5424 8.323 22.8619 8.76251 22.8619 8.76251L19.756 10.6217V9.66796C19.756 8.24373 18.4477 8.25662 18.4477 8.25662V1.45H27.4511V8.323Z" fill="url(#paint0_linear_501_111)"/>
<path d="M26.0686 5.64148H20.0732V6.7641H26.0686V5.64148Z" fill="#EF4A5F"/>
<path style="mix-blend-mode:overlay" d="M26.0686 5.64148H20.0732V6.7641H26.0686V5.64148Z" fill="url(#paint1_linear_501_111)"/>
<path d="M26.0686 3.42004H20.0732V4.54138H26.0686V3.42004Z" fill="#EF4A5F"/>
<path style="mix-blend-mode:overlay" d="M26.0686 3.42004H20.0732V4.54138H26.0686V3.42004Z" fill="url(#paint2_linear_501_111)"/>
<path fill-rule="evenodd" clip-rule="evenodd" d="M24.8102 11.7238C23.9622 11.7238 23.5045 11.9319 23.5045 11.9319C23.5045 11.9319 20.678 13.4399 20.3819 13.5991C19.6189 14.0064 19.6576 14.7153 19.6576 14.7153V26.1116C19.6576 27.3799 20.6787 28.4078 21.938 28.4078H24.6293C25.8892 28.4078 26.9104 27.3831 26.9104 26.1136V12.9082C26.9104 12.2445 26.6013 11.7244 25.9575 11.7244H24.8102V11.7238Z" fill="#19191B"/>
</g>
<defs>
<linearGradient id="paint0_linear_501_111" x1="449.41" y1="0" x2="716.66" y2="1225.51" gradientUnits="userSpaceOnUse">
<stop stop-color="#848484" stop-opacity="0.5"/>
<stop offset="1" stop-opacity="0.3"/>
</linearGradient>
<linearGradient id="paint1_linear_501_111" x1="235.908" y1="5.64148" x2="240.589" y2="122.826" gradientUnits="userSpaceOnUse">
<stop stop-color="#848484" stop-opacity="0.5"/>
<stop offset="1" stop-opacity="0.3"/>
</linearGradient>
<linearGradient id="paint2_linear_501_111" x1="235.908" y1="3.42004" x2="240.578" y2="120.47" gradientUnits="userSpaceOnUse">
<stop stop-color="#848484" stop-opacity="0.5"/>
<stop offset="1" stop-opacity="0.3"/>
</linearGradient>
<clipPath id="clip0_501_111">
<rect width="47" height="29" fill="white"/>
</clipPath>
</defs>
</svg>
