<svg width="51" height="48" viewBox="0 0 51 48" fill="none" xmlns="http://www.w3.org/2000/svg">
<path d="M25.2649 0.0673676C25.2193 0.363529 25.2421 0.409092 25.7433 2.29997C26.3128 4.41867 26.3584 7.67645 25.8572 8.88387C25.4243 9.93183 25.4243 12.2328 25.8572 13.2807C26.0395 13.7136 26.9735 14.921 27.9531 15.9462C31.3248 19.4773 32.3044 21.1404 32.5094 23.6236C33.0334 29.843 28.5227 34.126 23.3968 32.3262C21.8704 31.7795 20.9819 31.0732 19.6606 29.3874C18.3848 27.7471 18.2026 27.0636 18.157 23.8059C18.1114 20.0469 18.5443 18.7256 21.2781 13.9414C22.8728 11.1848 23.9208 8.29155 24.308 5.55775C24.4675 4.28197 23.898 4.46423 22.9411 6.01338C22.0982 7.40306 18.4304 11.4354 17.2913 12.2556L16.6078 12.734L15.4915 12.005C14.8537 11.5949 14.0791 10.957 13.7373 10.5469C12.9628 9.63567 11.8693 7.33472 11.7098 6.2412C11.5959 5.64888 11.4364 5.39828 11.163 5.39828C10.8441 5.39828 10.7074 5.78556 10.4568 7.49419C10.2745 8.65606 10.1378 10.6836 10.1606 12.005C10.1606 14.2148 10.229 14.5565 11.0035 16.4246C11.8237 18.4294 11.9832 19.3179 11.2997 17.951C10.5024 16.4018 6.3333 13.668 4.16905 13.2352C3.00718 13.0074 3.21222 13.5541 4.87528 15.2627C7.15344 17.5865 9.5683 21.5277 9.5683 22.9402C9.5683 23.3275 9.72777 23.3958 10.4796 23.3958C11.1858 23.3958 11.3908 23.3047 11.3908 23.0085C11.3908 22.5529 13.464 18.6344 14.4436 17.2903C14.8309 16.7435 15.2865 16.0373 15.446 15.7412C15.7421 15.1944 16.0611 15.0577 16.2433 15.3766C16.38 15.5589 15.97 16.3563 14.2385 19.5913L13.0995 21.6872V25.4917V29.2962L11.8009 27.9293C10.0467 26.1068 8.58869 25.4461 6.24218 25.4461C3.21222 25.4461 0 26.4485 0 27.4054C0 27.656 0.182253 27.7015 0.751795 27.6104C2.18704 27.337 4.32852 27.9293 6.49278 29.2051C7.63186 29.8658 8.79373 30.4809 9.11267 30.572C10.2745 30.891 11.6187 31.4377 11.6187 31.5972C11.6187 31.6883 11.0947 31.825 10.4568 31.8934C8.54313 32.1212 4.87528 33.6475 4.16905 34.536C3.64507 35.1511 3.8501 35.2423 5.55873 35.2423C6.49278 35.2423 7.3357 35.3334 7.40404 35.4701C7.70021 35.9485 11.2997 36.837 13.0083 36.837L14.6942 36.8598L13.874 37.2926C11.8237 38.3861 10.2973 40.9377 10.0239 43.7626C9.93281 44.6511 9.91003 45.4485 9.95559 45.5396C10.0012 45.6535 10.2973 45.7218 10.6163 45.7218C11.0491 45.7218 11.163 45.6079 11.163 45.1523C11.163 44.3322 11.7326 43.2614 12.735 42.2362C14.3297 40.5276 15.8788 40.0264 19.8428 39.8669L22.9639 39.753L23.1234 41.1883C23.2829 42.6691 23.9435 44.6739 24.5586 45.7218C25.5383 47.3393 26.0622 48 26.404 48C26.7229 48 26.7685 47.6127 26.814 45.2434L26.8368 42.4868L27.8392 41.1883L28.8416 39.9125H32.4867H36.109L37.6809 40.7099C38.9567 41.3478 39.4351 41.7578 40.1185 42.7602C40.5969 43.4437 41.0298 44.3549 41.1209 44.7422C41.2348 45.3345 41.3715 45.494 41.7816 45.494C42.26 45.494 42.2828 45.4257 42.1917 44.1727C42.055 42.4641 41.4171 40.801 40.2324 39.0696C39.4579 37.9305 39.025 37.5432 38.2504 37.2471L37.248 36.8598H38.5922C40.0957 36.837 42.0094 36.3813 43.6269 35.6751C44.3104 35.379 45.2216 35.1967 46.0418 35.1739C47.8187 35.1511 47.8415 34.6727 46.0873 33.7159C44.6065 32.9185 41.1665 31.8022 39.9818 31.7567C39.025 31.7111 38.9339 31.2099 39.8224 31.0049C40.1641 30.9137 41.9183 30.1847 43.7408 29.3646C46.748 28.0205 47.2264 27.8838 48.935 27.7699C49.9602 27.7243 50.8031 27.5876 50.8031 27.4737C50.8031 26.8586 47.2036 25.5373 45.2216 25.4234C43.308 25.3095 40.5058 25.9929 40.0502 26.6991C39.7312 27.1776 37.567 29.3646 37.4758 29.2735C37.4303 29.2279 37.5442 28.6811 37.7264 28.066C37.9998 27.1776 38.0454 26.2891 37.9543 24.0792C37.8176 20.9582 37.567 19.7735 36.4962 17.3131C35.6761 15.4678 35.585 14.9894 36.109 15.4222C36.6785 15.9006 40.0957 22.2795 40.0957 22.849C40.0957 23.0541 40.3691 23.168 40.8931 23.168C41.3715 23.168 41.6905 23.0541 41.6905 22.8718C41.6905 22.3478 43.718 18.3838 44.6065 17.1764C45.1077 16.5385 45.9734 15.5133 46.5885 14.921C48.6389 12.8934 47.3175 12.5973 43.7864 14.3059C42.465 14.9438 41.5538 15.6045 40.7336 16.4702C40.073 17.1308 39.5262 17.6548 39.4579 17.6093C39.4123 17.5637 39.6173 16.8575 39.9363 16.0601C40.2324 15.2855 40.6197 14.2148 40.802 13.7136C41.4171 11.9822 40.8931 5.51218 40.1413 5.51218C39.9818 5.51218 39.5945 6.21842 39.2984 7.06134C38.5922 9.08891 37.6353 10.2963 35.5622 11.7999C34.6281 12.4834 33.7852 13.0529 33.6941 13.0985C33.5802 13.144 33.1245 12.415 32.6689 11.5038C31.2337 8.65606 28.5454 3.91747 27.4747 2.41388C26.404 0.864723 25.3104 -0.297142 25.2649 0.0673676Z" fill="black"/>
<path d="M25.1052 16.903C25.5153 18.156 25.5153 18.1788 25.0141 19.3407C24.7407 19.9785 23.8295 21.3227 23.0093 22.3023C21.3007 24.3298 20.8451 25.3778 21.1868 26.6308C22.0297 29.6608 26.2899 30.5492 28.7731 28.2255C29.8666 27.2003 30.1628 26.4258 30.14 24.421C30.14 22.9174 30.0488 22.3478 29.5477 21.2771C28.7959 19.614 27.839 18.2244 26.4493 16.8119C24.9002 15.24 24.5357 15.2627 25.1052 16.903Z" fill="black"/>
</svg>
