<svg width="57" height="21" viewBox="0 0 57 21" fill="none" xmlns="http://www.w3.org/2000/svg">
<g clip-path="url(#clip0_501_127)">
<path d="M0 0.348068H0.394015C1.43534 0.348068 4.92519 0.261047 6.21934 0.261047C14.0992 0.261047 17.2794 4.93115 17.2794 10.3259C17.2794 16.0113 13.5086 20.7099 5.99419 20.7099C4.95287 20.7099 2.36362 20.6519 0.478447 20.6519H0V0.348068ZM4.50303 4.69861V16.3009C5.09405 16.3589 5.48807 16.3589 6.13491 16.3589C10.0188 16.3589 12.4954 14.1839 12.4954 10.3259C12.4954 6.58454 9.82177 4.61208 6.16353 4.61208C5.68508 4.61208 5.06591 4.61208 4.50303 4.6991V4.69861Z" fill="#19191B"/>
<path d="M28.7718 0C34.766 0 39.2409 4.03195 39.2409 10.5C39.2409 16.649 34.766 21 28.7718 21C22.7776 21 18.3027 16.9685 18.3027 10.5C18.3027 4.61161 22.4957 0 28.7718 0ZM28.7718 16.649C32.515 16.649 34.4564 13.9223 34.4564 10.5C34.4564 6.78712 31.9516 4.35055 28.7718 4.35055C25.5071 4.35055 23.0872 6.78712 23.0872 10.5C23.0872 13.9808 25.6197 16.649 28.7718 16.649Z" fill="#19191B"/>
<path d="M56.9993 12.2694C56.9993 18.4764 53.1722 21 48.9506 21C43.8847 21 40.3672 18.0123 40.3672 12.0664V0.348083H44.8702V11.0801C44.8702 14.2419 45.7985 16.6495 48.9506 16.6495C51.6806 16.6495 52.4968 14.59 52.4968 11.3417V0.348083H56.9998L56.9993 12.2694Z" fill="#19191B"/>
</g>
<defs>
<clipPath id="clip0_501_127">
<rect width="57" height="21" fill="white"/>
</clipPath>
</defs>
</svg>
