<svg width="45" height="51" viewBox="0 0 45 51" fill="none" xmlns="http://www.w3.org/2000/svg">
<path d="M19.4532 0.859734C17.7068 1.45719 15.7077 2.74401 14.6277 3.96191C12.2838 6.65045 11.6863 11.7518 13.5247 13.4293L14.1451 14.0037L10.5604 15.934C8.58416 16.991 5.43604 18.6685 3.52878 19.6336C1.64449 20.6217 0.0589404 21.5179 0.0129824 21.6787C-0.17085 22.2073 1.62152 22.6898 3.87346 22.7128C5.9186 22.7358 6.17137 22.6898 7.61904 21.9775C8.49225 21.5409 9.25056 21.0583 9.29651 20.8975C9.41141 20.6447 9.52631 20.6447 10.0318 20.8975C10.3765 21.0813 10.997 21.2881 11.3876 21.403L12.1459 21.5868L10.0778 25.6541C6.51605 32.6627 4.79262 37.856 4.79262 41.6016C4.79262 43.5088 5.16029 44.382 6.6769 45.9676C9.82503 49.2996 14.4668 51 20.4184 51C23.4976 51 27.404 50.3796 26.9444 49.9889C26.8295 49.897 25.6576 49.5753 24.3248 49.2766C19.2694 48.1966 15.6617 46.4961 13.2259 44.0603C10.8591 41.7165 9.80205 39.1198 9.52631 35.0296C9.36545 32.9844 9.41141 32.9844 10.3076 35.3743C11.3187 38.0398 13.9842 40.8662 16.7417 42.222C18.0745 42.8884 18.4192 42.9573 20.3035 42.9573C22.0958 42.9573 22.5554 42.8654 23.8193 42.2909C25.6576 41.4407 27.0363 39.9011 28.0474 37.6262C28.7827 35.9487 29.1504 35.5351 29.1504 36.4083C29.1504 36.8909 29.2883 36.9138 31.793 36.9828C32.6892 37.0058 32.7122 37.0287 32.9879 38.1547C33.5854 40.7743 33.1947 44.6118 32.0228 47.1395C31.2415 48.84 31.2875 49.0468 32.2526 48.1276C33.2637 47.1395 34.7803 44.6808 35.3318 43.0493C35.9062 41.4177 36.5037 38.4994 36.5037 37.3275C36.5037 36.2475 36.6186 36.2245 38.2501 36.8909C39.3761 37.3734 39.468 37.3734 40.6859 37.0058C42.9378 36.3624 44.5234 34.1104 44.7302 31.3299C44.8221 29.8363 44.8221 29.7674 43.5123 27.3316C42.777 25.9988 41.3523 23.609 40.3182 22.0694L38.4339 19.2659L39.6059 19.3349C41.0995 19.4498 43.9489 18.7374 44.0408 18.2319C44.0868 17.9561 43.6042 17.6804 42.2025 17.1519C39.2842 16.0489 36.7105 15.2676 35.6765 15.1067C34.7803 14.9918 34.7113 14.9229 34.5735 14.1416C34.3437 12.7169 32.2526 11.0854 29.5181 10.2122C28.9666 10.0284 27.8176 9.95943 26.4159 10.0284C24.072 10.1203 22.8312 10.5569 21.912 11.5909L21.4524 12.1195L22.3716 11.9816C22.8771 11.8897 23.8652 11.6829 24.5546 11.4761C26.7606 10.8556 29.0125 11.1543 31.2645 12.3263C33.3556 13.4293 36.4348 17.4046 41.1225 25.0337C43.857 29.4457 44.1557 30.0891 43.7421 30.4338C43.2366 30.8704 41.0995 30.7555 39.9506 30.2269C38.6178 29.6295 37.8824 29.6065 37.8824 30.181C37.8824 30.8474 40.1574 32.8925 41.5131 33.467C42.8459 34.0185 42.9608 34.3632 42.0187 35.0755C40.571 36.1326 38.411 35.7189 36.7565 34.0644C35.4467 32.7546 35.2628 31.9504 35.8143 29.6525C36.5726 26.5273 36.2969 24.3903 34.7573 21.2651C33.1717 18.0481 29.7249 15.4744 25.7035 14.4633C24.8763 14.2565 23.4746 13.682 22.5554 13.1995C21.5673 12.648 20.6022 12.2803 20.1426 12.2803C19.4073 12.2803 18.4422 11.7978 18.0745 11.2692C17.9826 11.1314 17.8907 10.442 17.8907 9.75262C17.8907 7.38578 19.6371 4.88107 22.2797 3.43339C23.3827 2.83593 23.7963 2.74401 25.8414 2.67508C29.7708 2.51423 32.2526 3.47935 35.5616 6.39768C36.5037 7.22493 37.3309 7.86834 37.3769 7.7994C37.7216 7.4777 35.6075 5.13384 33.5854 3.57126C32.1836 2.49125 28.9896 1.08953 27.1053 0.675903C24.5776 0.147385 21.3375 0.2393 19.4532 0.859734ZM27.2661 16.7153C29.61 17.3357 30.3453 17.8412 32.0917 20.0243C34.7113 23.2643 35.6075 27.3086 34.1828 29.3997C33.5394 30.3418 33.3556 30.3648 32.1147 29.7214C31.6092 29.4686 30.2994 29.055 29.2423 28.8252C27.7027 28.5035 27.0823 28.2278 26.278 27.5614C24.7155 26.2975 23.4286 24.689 22.1188 22.46L20.9469 20.4379L21.4524 19.7485C21.7282 19.3579 22.2337 18.5766 22.5784 17.9791C23.1759 16.8991 24.0491 16.2097 24.8074 16.1868C25.0142 16.1868 26.1172 16.4395 27.2661 16.7153ZM17.6609 17.9102C17.6609 18.3238 17.0864 18.3468 15.6847 18.0021C13.8693 17.5425 9.38843 18.9672 9.38843 20.0243C9.38843 20.4609 8.83693 20.277 8.74502 19.8174C8.53821 18.7834 12.031 17.6115 15.4319 17.5885C17.2702 17.5655 17.6609 17.6344 17.6609 17.9102ZM19.9588 21.4719C19.9588 22.5979 22.2567 26.4354 24.4857 29.032C25.9333 30.7325 26.1631 31.1002 26.1631 31.8585C26.1631 34.7079 23.7503 36.6611 20.6711 36.3164C17.8447 35.9947 15.2711 34.0415 13.8693 31.1461C12.9961 29.3997 12.8353 26.3205 13.4787 23.7698L13.9153 22.0464L15.6157 22.0234C16.7877 22.0234 17.6839 21.8626 18.4652 21.5409C19.9358 20.9204 19.9588 20.9204 19.9588 21.4719Z" fill="#19191B"/>
<path d="M26.5765 17.8872C25.1978 18.2549 24.4165 18.7834 23.9799 19.6336C23.6122 20.3689 23.796 20.5068 24.5543 20.0932C24.922 19.9094 25.1748 20.0472 26.025 20.9204C26.8752 21.7707 27.174 21.9315 27.5876 21.7936C28.6906 21.4489 29.8395 20.1851 29.8395 19.3349C29.8395 18.7834 28.8744 17.8183 28.231 17.7034C27.9093 17.6344 27.174 17.7263 26.5765 17.8872ZM27.7714 18.7374C27.7714 18.8523 27.5186 18.9442 27.1969 18.9442C26.5535 18.9442 26.4156 18.5766 27.0361 18.4157C27.4957 18.3238 27.7714 18.4387 27.7714 18.7374Z" fill="#19191B"/>
</svg>
