<svg width="51" height="45" viewBox="0 0 51 45" fill="none" xmlns="http://www.w3.org/2000/svg">
<path d="M26.0072 0.320877C24.2226 0.899956 22.8615 1.8143 21.4096 3.39915C19.2016 5.83738 20.0183 7.94036 23.4967 8.70231C25.4022 9.129 26.0676 9.129 27.4288 8.73279C29.3343 8.18419 29.5158 7.90988 28.4874 7.02602C28.0034 6.59933 27.0658 5.98977 26.4609 5.71547C25.8257 5.41069 25.4022 5.07544 25.5232 4.984C25.9467 4.55731 28.4269 4.80113 29.546 5.38021C30.6954 5.98977 30.7559 6.05073 30.7559 7.51367C30.7559 8.33657 30.5442 10.0129 30.272 11.232C29.9997 12.573 29.8787 14.0359 29.9997 14.9198L30.1812 16.3828L21.3189 16.2304C16.4492 16.1389 11.4282 15.9865 10.1881 15.8951C8.88747 15.7732 7.49612 15.8341 6.86094 16.017C5.2881 16.4742 3.83626 18.1505 3.62453 19.6439C3.4733 20.7411 3.32206 20.9544 2.47515 21.2287C1.23503 21.6554 0.267136 22.6917 0.0251615 23.8498C-0.186566 25.0385 0.962812 26.5319 2.53565 27.05L3.62453 27.3853L3.44305 30.6159C3.32206 33.1151 3.38256 34.1209 3.74552 35.0352C4.19922 36.1325 5.37884 37.0773 6.34674 37.0773C6.67946 37.0773 6.83069 37.7173 6.92143 39.8812C7.10291 44.0567 8.28254 45.7025 10.3696 44.7272C11.0955 44.392 11.0955 44.3615 10.914 41.527C10.793 39.9727 10.793 38.3269 10.914 37.8697C11.0955 37.1077 11.2165 37.0773 12.9708 37.0773C14.1807 37.0773 15.6325 37.3516 17.1146 37.8697C19.8671 38.8145 21.7121 38.7536 24.6158 37.5344C26.4609 36.803 29.0016 36.5287 29.7275 37.0163C29.9392 37.1382 30.1207 38.4488 30.2115 40.1251C30.3022 42.2585 30.4837 43.2338 30.8769 43.8739C31.6028 44.9406 32.6615 45.2149 33.6294 44.5748C34.3553 44.0872 34.3855 43.9653 34.3855 40.4603V36.8334L35.3232 36.6506C35.8374 36.5591 36.775 35.9496 37.4102 35.3096C39.0435 33.6637 39.5577 31.4998 38.9528 28.6958C38.8016 28.0253 38.5898 26.0138 38.4688 24.2461L38.2874 20.9849L39.3762 20.8021C40.8886 20.4973 42.3102 18.9734 42.7941 17.0228C43.2781 15.2246 43.1873 14.676 41.7657 10.1957C40.5256 6.29455 40.4954 5.5326 41.433 5.2583C42.4614 4.984 44.4577 5.04496 44.9719 5.38021C45.3651 5.65451 45.3046 5.8069 44.6694 6.38599C44.246 6.75172 43.5805 7.26985 43.1571 7.54415C42.2194 8.15371 42.5522 8.61087 44.3065 9.00709C46.5447 9.55569 49.4787 8.73279 50.628 7.23937C51.5959 5.95929 50.628 3.91727 48.2688 2.14955C45.5466 0.138008 42.4009 -0.31916 38.2874 0.656136C36.1096 1.17426 35.9281 1.17426 34.5065 0.656136C32.5405 -0.044857 27.701 -0.227726 26.0072 0.320877Z" fill="#19191B"/>
</svg>
