<svg width="51" height="57" viewBox="0 0 51 57" fill="none" xmlns="http://www.w3.org/2000/svg">
<path d="M12.3138 0.241985C10.7567 0.698368 10.0319 2.68496 9.41441 8.42999C8.85065 13.5307 8.79695 13.7992 7.8305 15.7858C6.81036 17.9066 5.17275 19.6247 3.69623 20.108C1.97809 20.6717 2.2197 21.0207 4.39422 21.1013C6.24659 21.1818 6.75666 21.4234 5.95129 21.8798C5.73652 21.9872 4.47476 23.1684 3.13246 24.457L0.689485 26.8194L3.15931 26.6315C5.22645 26.4705 5.57544 26.4973 5.38752 26.8194C4.58214 28.1349 2.81031 30.39 1.38748 31.8128C0.501563 32.7524 -0.115893 33.5041 0.0183369 33.5041C0.179412 33.5041 0.877406 33.3162 1.60225 33.1014C2.32709 32.8866 3.66938 32.6987 4.58214 32.6987C6.38082 32.6987 7.5352 33.2625 8.55534 34.6048C9.62918 36.0813 9.65602 39.2491 8.60903 41.3162L8.1795 42.1216L8.79695 41.7995C9.68287 41.3162 12.9581 41.3968 14.193 41.9069C14.9715 42.2559 15.3474 42.6317 15.7769 43.625C16.5554 45.37 16.5554 48.0277 15.8037 49.5579C15.1594 50.8734 15.3742 51.0076 16.448 49.9338C17.6024 48.7794 19.5085 47.464 20.0454 47.464C21.2803 47.464 24.1797 52.0815 24.985 55.303C25.2535 56.2963 25.5488 57.0748 25.6562 56.9943C25.7636 56.9406 25.9247 56.1889 26.032 55.3567C26.1394 54.4976 26.4347 53.2895 26.73 52.6184C27.3206 51.3029 29.3072 48.4036 30.1932 47.625C30.7301 47.1418 30.7569 47.1418 31.4818 47.5982C31.9113 47.8667 32.9046 48.672 33.7368 49.3969C34.569 50.0949 35.3207 50.6855 35.4281 50.6855C35.5086 50.6855 35.2939 50.2291 34.9717 49.6922C34.1664 48.2962 34.1932 45.3968 35.0254 43.7861C35.9113 42.0142 37.2536 41.4505 40.153 41.6116L42.4617 41.7458L41.9785 40.7793C41.5758 40.0008 41.4684 39.3565 41.549 37.531C41.6564 34.8732 42.0591 34.0947 43.8577 33.2088C44.8242 32.7256 45.3611 32.645 46.945 32.7524C48.0188 32.8329 49.2806 33.0745 49.7638 33.343C50.2202 33.5846 50.6229 33.7189 50.6229 33.6115C50.6229 33.5309 50.0323 32.7524 49.3343 31.9202C48.0457 30.4168 45.2 26.4973 45.3074 26.3899C45.3611 26.3631 46.3007 26.4168 47.4014 26.551C48.5021 26.6852 49.4148 26.7389 49.4417 26.7121C49.4685 26.6852 48.3678 25.4503 46.9719 23.9738C44.5826 21.4234 44.502 21.2892 45.2 21.2087C45.6027 21.1818 46.4618 21.0744 47.1061 20.9939L48.3142 20.8328L46.6497 20.0543C43.9114 18.7388 42.247 16.0005 41.7369 12.0005C40.7168 3.89303 40.2872 2.06751 39.1865 0.886288C37.6026 -0.831848 35.9919 -0.107014 33.2267 3.54403L31.267 6.12124L25.4683 6.06755L19.6696 5.98701L17.6293 3.59772C14.7836 0.268829 13.9782 -0.241238 12.3138 0.241985ZM14.8641 3.00711C15.9648 3.59772 17.7903 5.58432 18.2736 6.71185C18.4883 7.27562 18.5957 7.732 18.4883 7.732C17.7366 7.732 15.4816 5.79909 14.7299 4.51049C13.5218 2.52389 13.5487 2.30912 14.8641 3.00711ZM37.012 3.08765C36.2872 5.04741 33.522 7.732 32.2334 7.732C31.8576 7.732 33.5489 5.20848 34.7033 4.02726C36.0724 2.63127 37.361 2.1212 37.012 3.08765ZM14.2198 7.19508C15.0789 9.87967 15.0789 10.1213 14.2198 11.8126L13.5218 13.1549L12.6091 12.269C12.099 11.7857 11.4547 10.873 11.1594 10.2824C10.2735 8.48368 10.5688 4.53733 11.6158 3.7588C12.0453 3.46349 12.1795 3.51719 12.8238 4.21518C13.2265 4.67156 13.844 5.98701 14.2198 7.19508ZM39.4818 4.24203C39.9651 5.18163 40.0456 9.61121 39.5892 10.4971C39.2402 11.1683 37.4416 13.1012 37.1731 13.1012C36.7436 13.1012 36.0724 10.5777 36.2066 9.39644C36.4214 7.32931 38.1127 3.43665 38.8107 3.43665C38.9449 3.43665 39.2402 3.78564 39.4818 4.24203ZM21.6293 12.3495C22.5958 13.5307 23.4548 14.7119 23.5354 14.9536C23.6696 15.3294 22.9716 18.5509 22.6763 18.8731C22.5958 18.9267 21.8172 18.5778 20.9313 18.0408L19.3474 17.0744L17.1997 17.5039C14.542 18.0408 13.0386 18.0677 13.0386 17.5844C13.0386 16.9401 15.3474 14.0408 17.4413 12.081C18.5957 11.034 19.6159 10.1481 19.7232 10.1481C19.8306 10.1481 20.6897 11.1414 21.6293 12.3495ZM33.6026 12.1079C34.9986 13.3965 38.0053 17.2623 38.0053 17.7992C38.0053 18.014 35.1596 17.8261 32.9583 17.4502C31.3475 17.1818 29.7905 17.6918 29.0656 18.7388C28.4213 19.6516 27.9113 19.2221 27.5891 17.5039C27.079 15.0072 27.1059 14.8462 29.173 12.43C31.3744 9.85283 31.1328 9.87967 33.6026 12.1079ZM18.5689 19.0073C19.1326 19.4368 19.8038 19.7858 20.0186 19.7858C20.287 19.7858 20.2333 19.6516 19.8306 19.3563C18.6226 18.5241 19.4011 18.1214 20.7971 18.8731C21.2266 19.0878 21.7098 19.6247 21.8709 20.108C22.2736 21.2623 22.2468 21.316 21.6562 20.7791C21.2535 20.4033 21.0119 20.3764 20.5823 20.5912C20.287 20.7523 19.6159 20.8865 19.1058 20.8865C18.2736 20.8865 18.0856 20.7523 17.4682 19.7321C17.0923 19.0878 16.797 18.4704 16.797 18.3898C16.797 17.9871 17.5756 18.2556 18.5689 19.0073ZM31.1865 18.8731C30.9717 19.7053 31.0522 19.7053 32.5288 18.8462C33.1999 18.4435 33.8174 18.2019 33.8979 18.2824C34.1127 18.5241 33.4684 19.9737 32.9046 20.4838C32.3945 20.9402 31.1865 20.9402 30.1663 20.5107C29.871 20.3764 29.522 20.5107 29.1462 20.8865L28.5556 21.4771L28.7435 20.5912C29.0119 19.41 29.0656 19.3294 30.0589 18.712C31.1596 18.0408 31.3744 18.0677 31.1865 18.8731ZM17.0118 21.1281C17.7098 21.9603 17.9514 22.0677 19.4279 22.1751C20.9582 22.2825 21.0924 22.3362 21.0924 22.9268C21.0924 23.4369 21.2803 23.5711 22.3005 23.7322C22.9716 23.8127 23.5085 23.9469 23.5085 24.0006C23.5085 24.0543 23.1327 25.4503 22.6763 27.1148C21.1461 32.6182 21.1729 32.3497 21.9515 33.1819C22.3273 33.5846 22.7031 34.1484 22.7568 34.4437C22.8374 34.9269 23.0521 34.9806 25.3877 34.9806H27.9381L28.0186 34.2558C28.0723 33.7725 28.3408 33.4504 28.9046 33.2088C29.8442 32.8329 29.871 33.2088 28.5287 28.6718C28.0186 26.9805 27.5086 25.2087 27.428 24.7255C27.2401 23.8932 27.2401 23.8664 28.4213 23.7053C29.4683 23.5442 29.5757 23.4637 29.4952 22.8999C29.3609 22.3362 29.4683 22.2825 31.1596 22.1751C32.6898 22.0946 33.0657 21.9603 33.4684 21.3966C33.7637 21.0476 34.1127 20.5912 34.2469 20.4033C34.4617 20.1885 35.5086 20.0811 37.8174 20.0811H41.1194L42.7034 21.4771C43.5624 22.2556 44.7168 23.3026 45.2269 23.7859L46.1933 24.6986L43.7772 24.5375C42.3544 24.457 41.5758 24.4839 41.898 24.6181C42.2201 24.7523 42.757 25.3161 43.1597 25.8798C44.0725 27.249 45.7906 30.0141 45.7906 30.0947C45.7906 30.1483 44.9853 30.0947 43.992 29.9604C42.0322 29.7188 39.2134 29.8799 37.8174 30.3094C36.8509 30.6316 36.6362 31.088 37.4416 31.088C37.9785 31.088 39.2671 32.4302 39.6161 33.343C39.7235 33.6652 39.9114 35.3028 40.0188 37.0209L40.2067 40.135L38.757 39.9471C36.3946 39.625 35.0791 39.088 33.8442 38.0142C33.1999 37.4504 32.6093 36.9941 32.5288 36.9941C32.4482 36.9941 32.5824 37.4504 32.8241 37.9874C33.3073 39.1417 33.4415 42.6049 33.0925 45.1284C32.8777 46.6586 32.8509 46.6854 32.3408 46.2291C32.0455 45.9606 31.3475 44.7794 30.7838 43.5982C30.22 42.3901 29.5757 41.2626 29.3341 41.0478C28.9314 40.7256 28.8777 40.7793 28.8777 41.5042C28.8777 42.8196 27.8307 45.8532 26.6495 47.9203C26.0589 48.9942 25.4683 49.8801 25.3609 49.8801C24.9582 49.8801 22.381 44.2425 22.0857 42.6585C21.9246 41.7726 21.683 41.0209 21.5756 41.0209C21.4682 41.0209 20.7702 42.229 19.9917 43.7055C19.2132 45.1821 18.4346 46.5244 18.2467 46.6586C18.0051 46.8734 17.8977 46.1485 17.7366 43.5982C17.5756 40.8599 17.6293 39.974 18.0051 38.739C18.2467 37.88 18.3809 37.1283 18.3004 37.0746C18.2199 36.9941 17.683 37.3431 17.0923 37.88C15.938 38.9001 14.3004 39.5176 11.8037 39.8129C10.3809 40.0008 10.2735 39.974 10.4882 39.5176C10.5956 39.2223 10.7836 37.6652 10.8641 36.0544C10.9983 33.4235 11.1057 32.994 11.6963 32.2423C12.0722 31.7859 12.7165 31.249 13.1191 31.0611C13.5755 30.8732 13.7635 30.6316 13.6292 30.4973C13.2265 30.0947 8.66272 29.7457 6.75666 29.9604C5.79021 30.0947 4.98483 30.1483 4.98483 30.1215C4.98483 29.9336 8.31373 25.0208 8.60903 24.7792C8.8238 24.5912 8.26004 24.5375 6.8372 24.6181C5.57544 24.6718 4.71637 24.5912 4.71637 24.4302C4.71637 24.2959 5.17275 23.8664 5.73652 23.5174C6.27344 23.1416 7.40097 22.2288 8.23319 21.4771C9.60233 20.2422 9.84395 20.108 11.1862 20.0274C11.9916 19.9737 13.4413 20.0006 14.4346 20.0811C16.099 20.2154 16.3138 20.2959 17.0118 21.1281Z" fill="#19191B"/>
<path d="M11.9917 26.9268C13.9247 27.947 15.8844 29.8799 18.7032 33.6383C20.1261 35.5444 21.7637 37.5578 22.2737 38.0679C23.1597 38.9001 23.4281 39.0075 25.0657 39.088C26.7302 39.1686 26.9449 39.1149 27.9919 38.3632C28.6094 37.9068 29.549 36.9135 30.0591 36.135C33.3074 31.3027 35.6699 28.645 38.0323 27.249L39.7504 26.2288L38.0054 26.3899C34.2739 26.7658 32.1262 28.5644 30.4886 32.7256C28.9315 36.6988 28.2335 37.3967 27.1328 36.1887C26.4349 35.4101 24.9852 35.4907 23.7234 36.3498C22.7301 37.0477 22.6764 37.0477 22.1664 36.5914C21.8979 36.3498 20.9851 34.7658 20.1798 33.1014C18.2737 29.2356 16.7435 27.4638 14.8374 26.9537C14.0589 26.7389 12.8508 26.4973 12.0991 26.4168L10.7568 26.2825L11.9917 26.9268Z" fill="#19191B"/>
</svg>
