<svg width="51" height="48" viewBox="0 0 51 48" fill="none" xmlns="http://www.w3.org/2000/svg">
<path d="M10.9213 0.479462C9.75768 1.13225 9.4171 2.55134 9.44548 6.58157C9.44548 8.53993 9.55901 10.6118 9.67253 11.2078C9.87121 12.2296 9.81444 12.3147 8.36697 13.5919C5.6423 16.0044 1.04443 20.6874 1.04443 21.0564C1.04443 21.255 1.49854 21.1415 2.26485 20.6874C3.31498 20.063 6.12479 19.2399 6.38023 19.4953C6.437 19.5237 6.03965 19.8359 5.47201 20.1765C2.63382 21.9362 0.59032 25.8245 0.0510634 30.4792C-0.14761 32.1537 0.278119 32.8349 0.561938 31.3306C0.817375 30.025 1.95265 28.7195 3.79748 27.5558L5.58554 26.4489L4.76246 27.7261C3.82586 29.202 3.20146 32.1537 3.45689 33.7715C4.05291 37.376 6.2667 41.1791 9.27519 43.7335C10.2969 44.6133 10.9781 45.1242 10.8078 44.8972C10.2118 44.1592 8.67917 39.4195 8.76431 38.6815C8.84946 38.0571 8.99137 38.199 9.92797 39.7033C11.0065 41.4913 13.5609 43.9322 15.7746 45.3229C17.3357 46.2879 19.6062 47.0826 22.2741 47.6218C25.5948 48.2462 25.8218 48.1611 23.8635 46.8839C21.9619 45.6635 18.6128 42.655 19.7765 43.2226C20.1738 43.3929 20.7982 43.7619 21.1956 44.0457C21.5929 44.3011 22.9553 44.9823 24.2325 45.55C28.1208 47.3096 33.485 47.9057 37.4017 46.9974C39.6722 46.4866 40.098 45.8622 37.9977 46.146C36.238 46.373 33.7404 45.9189 31.2144 44.8404C28.064 43.5348 28.0356 43.0807 31.1293 43.9322C33.7688 44.6133 37.0895 44.8404 37.0895 44.3295C37.0895 44.0173 36.5218 43.7619 33.2579 42.4847C31.186 41.69 28.433 39.8736 27.1274 38.4829C26.7017 38.0287 25.8502 36.8651 25.2258 35.8717C23.9203 33.8566 23.012 30.4792 23.3242 29.0033C23.4945 28.237 23.4378 28.1518 22.8417 28.1518C22.4728 28.1518 21.7348 28.464 21.1956 28.8614C19.7481 29.9399 19.7481 29.7412 21.2524 27.8396C22.189 26.6192 25.7367 24.746 27.099 24.746C28.2911 24.746 28.2627 24.2635 26.9855 23.7243C23.3526 22.1916 14.5826 27.499 13.9014 31.6428C13.7311 32.7213 13.7028 32.7497 13.4473 32.0969C13.3054 31.728 13.1919 30.0818 13.1635 28.4357C13.1351 24.9731 13.3906 24.2351 15.4341 21.7091C16.8532 19.9495 20.7415 16.203 21.6781 15.7206C22.6715 15.1813 28.0924 13.9325 30.1075 13.7622L32.0659 13.5919L31.2996 13.0527C30.8454 12.7121 30.5616 12.2296 30.5616 11.8038C30.5616 11.4349 30.6184 11.1227 30.7035 11.1227C30.7887 11.1227 31.6685 11.8038 32.6903 12.5985C34.2229 13.8473 34.6486 14.3866 35.1311 15.7489C35.4717 16.6572 36.1812 17.9911 36.6921 18.729C38.3383 20.9996 37.7706 21.1131 35.3866 18.9561C34.7338 18.3885 33.6836 17.8776 33.3431 17.9911C33.1728 18.0479 33.5985 18.4736 34.2797 18.8993C35.4717 19.694 35.4717 19.7224 34.8473 19.9778C33.8823 20.3184 33.116 19.9778 32.7754 19.0412C32.5767 18.4452 32.2362 18.1614 31.4698 17.9627C29.7669 17.5086 28.2911 17.2816 28.2911 17.4802C28.2911 17.5654 28.7736 17.8776 29.3696 18.1898C29.9372 18.502 30.8738 19.2115 31.4131 19.7792C32.5767 20.9996 33.6553 21.624 34.6486 21.624C35.1027 21.624 35.5852 21.9362 36.011 22.5038C36.9192 23.7243 38.1112 24.9163 40.098 26.6192C41.0062 27.4139 42.5388 29.0601 43.4754 30.2805C46.1149 33.7147 46.5406 34.112 47.7043 34.112C49.6343 34.112 52.0467 30.7914 50.5141 30.3089C49.7762 30.0534 42.255 23.1282 41.1481 21.6808C40.2966 20.5739 40.2115 20.2617 40.2115 18.5871V16.7423L37.7423 14.1312C35.7555 12.0309 31.6401 7.57494 31.186 7.03569C31.1293 6.97892 30.9874 5.90041 30.8738 4.62322C30.6184 2.21076 30.1075 1.18901 29.1142 1.18901C28.5181 1.18901 25.311 2.86354 23.7216 3.99882C23.0972 4.45293 22.189 4.93542 21.7348 5.02057C20.9969 5.19086 20.9402 5.27601 21.2524 5.67335C22.0754 6.66672 19.4643 4.93542 16.7964 2.72163C13.5325 0.025351 12.5107 -0.371996 10.9213 0.479462ZM13.5609 4.73675C14.5258 6.35452 16.6545 10.9524 16.6545 11.4633C16.6545 11.5768 16.2004 11.6903 15.6327 11.6903C14.7529 11.6903 14.4123 11.4633 13.0784 10.0442C12.2553 9.16433 11.4322 7.97229 11.2619 7.43303C10.9497 6.29776 10.893 3.37442 11.1768 3.06222C11.716 2.52296 12.5959 3.14736 13.5609 4.73675ZM48.5274 31.1887C48.3287 31.2455 47.9881 31.2455 47.8178 31.1887C47.6192 31.1036 47.7611 31.0468 48.1584 31.0468C48.5558 31.0468 48.6977 31.1036 48.5274 31.1887Z" fill="#19191B"/>
<path d="M31.8957 31.3874C31.8106 31.6144 31.8957 32.2672 32.066 32.8916C32.4917 34.2539 35.7556 37.5746 38.0262 38.9086C40.9495 40.6399 43.6174 40.356 43.6174 38.2842C43.6174 36.8367 43.2769 36.5529 41.801 36.7515C41.0915 36.8651 40.4954 36.8367 40.4954 36.6948C40.4954 36.5813 40.1548 36.1271 39.7291 35.7014C38.7358 34.708 38.9912 34.5661 40.5238 35.2189C42.397 36.042 43.8445 36.2123 45.1784 35.7014L46.3137 35.3041H44.554C43.4755 35.3041 42.2267 35.077 41.2334 34.708C40.3535 34.3675 39.1899 34.112 38.6506 34.112C37.8843 34.112 37.5437 33.9134 36.8909 33.0619C35.6421 31.4157 32.3214 30.3088 31.8957 31.3874ZM39.9278 36.5813C39.9278 37.2908 39.1047 36.9218 38.1113 35.7582C36.6923 34.1404 36.8342 33.9417 38.5087 35.1905C39.275 35.7582 39.9278 36.411 39.9278 36.5813Z" fill="#19191B"/>
</svg>
