<svg width="99" height="28" viewBox="0 0 99 28" fill="none" xmlns="http://www.w3.org/2000/svg">
<g clip-path="url(#clip0_602_41)">
<path d="M89 2H76C70.4772 2 66 6.47715 66 12C66 17.5228 70.4772 22 76 22H89C94.5228 22 99 17.5228 99 12C99 6.47715 94.5228 2 89 2Z" fill="white"/>
<path d="M81.5601 7V13.53C81.5601 14.75 81.3001 15.66 80.7901 16.26C80.2801 16.87 79.4601 17.18 78.3401 17.18C77.2201 17.18 76.4001 16.88 75.8901 16.26C75.3801 15.66 75.1201 14.76 75.1201 13.53V7H76.6201V13.53C76.6201 14.25 76.7501 14.79 77.0101 15.17C77.2801 15.55 77.7201 15.74 78.3401 15.74C78.9601 15.74 79.4001 15.54 79.6701 15.17C79.9301 14.79 80.0701 14.25 80.0701 13.53V7H81.5601ZM87.6701 14.03H84.8401L84.2901 17H82.8201L84.8101 7H87.7201L89.7201 17H88.2201L87.6701 14.03ZM85.1001 12.63H87.4001L86.6401 8.54H85.8701L85.1001 12.64V12.63Z" fill="#8F8F8F"/>
<path d="M55.6 10.22C56.27 9.06 58.04 7.09 61.1 8.65C63.14 9.67 63.75 11.92 62.66 13.9C60.89 17.24 55.46 25.34 55.46 25.34C55.032 25.9747 54.4539 26.4939 53.777 26.8515C53.1002 27.2091 52.3455 27.3941 51.58 27.39C50.08 27.39 48.66 26.57 47.78 25C47.3 24.18 45.13 20.23 45.13 20.23H45.06C43.97 21.73 39.01 27.53 32.56 27.53C31.2669 27.5629 29.9813 27.3245 28.786 26.8301C27.5907 26.3358 26.5122 25.5966 25.62 24.66C24.6 25.21 19.03 28 12.64 28C6.66 28 0 24.92 0 17.97C0 10.07 8.77 9.2 12.17 10.15L12.03 3.27C12.03 1.43 13.73 0 15.9 0C18.15 0 19.98 1.43 19.98 3.27L19.91 14.1C19.91 16.08 17.94 17.37 16.18 17.37C14.8968 17.299 13.6641 16.8463 12.64 16.07C11.14 15.6 8.56 16.15 8.56 18.6C8.56 19.96 9.72 21.26 11.96 21.26C15.63 21.26 19.91 19.48 22.9 16.49C22.9 15.12 24 7.77 30.04 7.77C33.3 7.77 35.61 9.95 35.61 13.28C35.61 16.69 32.89 19.62 31.4 20.64V20.71C35.48 20.71 39.62 15.4 41.12 12.19C41.19 11.79 41.66 9.47 43.97 8.92C45.27 8.65 46.97 8.79 48.05 10.7C48.66 11.85 51.25 17.5 51.25 17.5H51.31C51.31 17.5 53.76 13.63 55.59 10.22H55.6ZM62.12 22C62.1147 21.3112 62.2463 20.6283 62.5071 19.9908C62.7679 19.3533 63.1528 18.774 63.6394 18.2865C64.126 17.799 64.7045 17.413 65.3415 17.1509C65.9785 16.8889 66.6612 16.756 67.35 16.76C68.0388 16.756 68.7215 16.8889 69.3585 17.1509C69.9955 17.413 70.574 17.799 71.0606 18.2865C71.5472 18.774 71.9321 19.3533 72.1929 19.9908C72.4537 20.6283 72.5853 21.3112 72.58 22C72.58 22.6845 72.4444 23.3622 72.181 23.9939C71.9175 24.6257 71.5315 25.1989 71.0452 25.6806C70.5589 26.1623 69.9819 26.5428 69.3477 26.8001C68.7134 27.0575 68.0344 27.1866 67.35 27.18C66.6656 27.1866 65.9866 27.0575 65.3523 26.8001C64.7181 26.5428 64.1411 26.1623 63.6548 25.6806C63.1685 25.1989 62.7825 24.6257 62.519 23.9939C62.2556 23.3622 62.12 22.6845 62.12 22Z" fill="#283CDC"/>
</g>
<defs>
<clipPath id="clip0_602_41">
<rect width="99" height="28" fill="white"/>
</clipPath>
</defs>
</svg>
