<svg width="51" height="47" viewBox="0 0 51 47" fill="none" xmlns="http://www.w3.org/2000/svg">
<path d="M28.8358 2.15243C26.9113 6.45728 26.5264 7.96719 26.3981 12.0472C26.2698 15.581 26.334 16.2235 27.2642 19.7573C27.9698 22.4238 28.3226 24.4798 28.3547 26.4074C28.3868 27.9494 28.5151 29.3308 28.6434 29.4272C29.0604 29.8448 30.1509 28.0779 30.8245 25.8934C31.434 23.9658 31.4981 23.2912 31.2736 20.5926C30.7604 14.039 30.9528 13.6535 32.9094 16.866C37.3038 23.998 38.7792 27.7888 38.9075 32.19C39.0038 35.499 38.4585 37.4586 36.9509 39.2256C35.5396 40.864 34.2245 41.4422 31.9792 41.4422C28.6113 41.4422 26.1415 38.8722 25.6604 34.7601C25.4038 32.8325 25.1792 32.3506 24.5057 32.4149C24.3774 32.447 24.2811 33.4429 24.217 34.6958C24.1849 36.527 23.9925 37.2016 23.2226 38.4224C21.9396 40.5106 20.8811 41.1852 18.8283 41.378C14.9472 41.6992 11.8679 38.4867 11.8679 34.1176C11.8679 31.3226 12.6377 29.2345 14.8509 26.0219C17.9302 21.5243 19.1491 19.3397 20.2717 16.5448C21.2019 14.1675 21.2981 13.6856 21.2981 10.1196C21.3302 6.52153 21.266 6.13602 20.4 4.2406C19.534 2.40944 18.9245 1.70267 18.9245 2.63432C18.9245 2.82707 17.6736 5.81477 16.166 9.2201C12.6377 17.2194 7.82642 28.5277 5.54906 34.0533C2.69434 41.0889 0.962264 45.0725 0.449057 45.8435C0.192453 46.229 0 46.6466 0 46.743C0 46.8072 11.483 46.9357 25.5 46.9679C39.517 47.0321 51 47 51 46.8715C51 46.7751 49.717 43.7553 48.1453 40.1251C46.5736 36.527 43.4623 29.2987 41.217 24.0943C35.8604 11.6295 31.434 1.60629 30.8566 0.706768C30.6 0.321259 30.2792 3.8147e-06 30.1189 3.8147e-06C29.9585 3.8147e-06 29.3811 0.963776 28.8358 2.15243Z" fill="#19191B"/>
</svg>
