<svg width="1124" height="406" viewBox="0 0 1124 406" fill="none" xmlns="http://www.w3.org/2000/svg">
<rect x="228" y="370" width="8.57143" height="8.57143" fill="white"/>
<rect opacity="0.3" x="912" y="23" width="8.57143" height="8.57143" fill="white"/>
<rect opacity="0.4" x="907" y="359" width="8.57143" height="8.57143" fill="white"/>
<rect opacity="0.3" x="1054" y="303" width="8.57143" height="8.57143" fill="white"/>
<rect x="1073" y="355" width="8.57143" height="8.57143" fill="white"/>
<rect opacity="0.1" x="166" y="212" width="8.57143" height="8.57143" fill="white"/>
<rect opacity="0.1" x="133" y="127" width="8.57143" height="8.57143" fill="white"/>
<rect opacity="0.6" x="1036" y="135" width="8.57143" height="8.57143" fill="white"/>
<rect opacity="0.4" x="324" y="318" width="8.57143" height="8.57143" fill="white"/>
<rect opacity="0.4" x="1068" y="43" width="8.57143" height="8.57143" fill="white"/>
<rect x="800" y="329" width="8.57143" height="8.57143" fill="white"/>
<rect opacity="0.3" x="157" y="122" width="8.57143" height="8.57143" fill="white"/>
<rect opacity="0.1" x="83" y="13" width="8.57143" height="8.57143" fill="white"/>
<rect opacity="0.3" x="25" y="102" width="8.57143" height="8.57143" fill="white"/>
<rect x="17" y="22" width="8.57143" height="8.57143" fill="white"/>
<rect opacity="0.8" x="954" y="125" width="8.57143" height="8.57143" fill="white"/>
<rect opacity="0.1" x="1032" y="314" width="8.57143" height="8.57143" fill="white"/>
<rect x="105" y="391" width="8.57143" height="8.57143" fill="white"/>
<rect opacity="0.1" x="59" y="296" width="8.57143" height="8.57143" fill="white"/>
<rect opacity="0.3" x="113" y="305" width="8.57143" height="8.57143" fill="white"/>
<rect opacity="0.4" x="55" y="376" width="8.57143" height="8.57143" fill="white"/>
</svg>
